<mxfile host="Electron" modified="2023-11-03T22:05:56.742Z" agent="Mozilla/5.0 (Macintosh; Intel Mac OS X 10_15_7) AppleWebKit/537.36 (KHTML, like Gecko) draw.io/22.0.3 Chrome/114.0.5735.289 Electron/25.8.4 Safari/537.36" etag="YKKp3FC_mDXWIcd1ZnU7" version="22.0.3" type="device">
  <diagram id="2FZCEFIGFviBtUF47QQc" name="Page-1">
    <mxGraphModel dx="1819" dy="1054" grid="1" gridSize="10" guides="1" tooltips="1" connect="1" arrows="1" fold="1" page="1" pageScale="1" pageWidth="850" pageHeight="1100" math="0" shadow="0">
      <root>
        <mxCell id="0" />
        <mxCell id="1" parent="0" />
        <mxCell id="kZlyT9btExikWkIdY84d-9" value="" style="rounded=0;whiteSpace=wrap;html=1;dashed=1;glass=1;shadow=1;strokeWidth=2;fillColor=none;" parent="1" vertex="1">
          <mxGeometry x="20" y="20" width="440" height="430" as="geometry" />
        </mxCell>
        <mxCell id="kZlyT9btExikWkIdY84d-12" value="" style="group" parent="1" vertex="1" connectable="0">
          <mxGeometry x="21.5" y="20" width="440" height="400" as="geometry" />
        </mxCell>
        <mxCell id="kZlyT9btExikWkIdY84d-10" value="Browser" style="text;html=1;strokeColor=none;fillColor=none;align=center;verticalAlign=middle;whiteSpace=wrap;rounded=0;shadow=1;glass=1;dashed=1;fontSize=14;" parent="kZlyT9btExikWkIdY84d-12" vertex="1">
          <mxGeometry x="23.5" y="6" width="40" height="20" as="geometry" />
        </mxCell>
        <mxCell id="-r5Mu0k7ATpPsQTbyTsy-1" style="edgeStyle=orthogonalEdgeStyle;rounded=0;orthogonalLoop=1;jettySize=auto;html=1;exitX=0.5;exitY=0;exitDx=0;exitDy=0;entryX=0.5;entryY=1;entryDx=0;entryDy=0;entryPerimeter=0;" parent="1" source="-r5Mu0k7ATpPsQTbyTsy-7" target="-r5Mu0k7ATpPsQTbyTsy-4" edge="1">
          <mxGeometry x="520" y="19.5" as="geometry">
            <mxPoint x="731.5" y="129" as="targetPoint" />
            <mxPoint x="644.5" y="369.5" as="sourcePoint" />
            <Array as="points" />
          </mxGeometry>
        </mxCell>
        <mxCell id="-r5Mu0k7ATpPsQTbyTsy-2" value="" style="rounded=0;whiteSpace=wrap;html=1;dashed=1;glass=1;shadow=1;strokeWidth=2;fillColor=none;" parent="1" vertex="1">
          <mxGeometry x="520" y="19" width="440" height="431" as="geometry" />
        </mxCell>
        <mxCell id="-r5Mu0k7ATpPsQTbyTsy-3" value="Ellucian Cloud" style="text;html=1;strokeColor=none;fillColor=none;align=center;verticalAlign=middle;whiteSpace=wrap;rounded=0;shadow=1;glass=1;dashed=1;fontSize=14;" parent="1" vertex="1">
          <mxGeometry x="533" y="22" width="96.5" height="22" as="geometry" />
        </mxCell>
        <mxCell id="-r5Mu0k7ATpPsQTbyTsy-4" value="SIS&lt;br&gt;Storage" style="shape=cylinder3;whiteSpace=wrap;html=1;boundedLbl=1;backgroundOutline=1;size=15;" parent="1" vertex="1">
          <mxGeometry x="795" y="55.5" width="60" height="80" as="geometry" />
        </mxCell>
        <mxCell id="-r5Mu0k7ATpPsQTbyTsy-6" value="Ethos&lt;br&gt;Integration&lt;br&gt;(authenticatedEthosFetch)" style="rounded=1;whiteSpace=wrap;html=1;" parent="1" vertex="1">
          <mxGeometry x="675" y="310" width="130" height="69" as="geometry" />
        </mxCell>
        <mxCell id="-r5Mu0k7ATpPsQTbyTsy-7" value="Ellucian&lt;br&gt;EEDM &amp;amp;/|| BP APIs" style="rounded=1;whiteSpace=wrap;html=1;" parent="1" vertex="1">
          <mxGeometry x="760" y="180.5" width="130" height="69" as="geometry" />
        </mxCell>
        <mxCell id="-r5Mu0k7ATpPsQTbyTsy-12" value="" style="edgeStyle=orthogonalEdgeStyle;rounded=0;orthogonalLoop=1;jettySize=auto;html=1;entryX=0;entryY=0.5;entryDx=0;entryDy=0;exitX=1;exitY=0.75;exitDx=0;exitDy=0;" parent="1" source="axQa1woJQ7J7HjtjuS9q-1" target="-r5Mu0k7ATpPsQTbyTsy-6" edge="1">
          <mxGeometry relative="1" as="geometry">
            <mxPoint x="428.5" y="374.5" as="sourcePoint" />
            <mxPoint x="569" y="404.5" as="targetPoint" />
            <Array as="points" />
          </mxGeometry>
        </mxCell>
        <mxCell id="XMBtIWdsb8YOJ49aTZew-1" value="Ellucian&lt;br&gt;Data Connect&lt;br&gt;Severless API" style="rounded=1;whiteSpace=wrap;html=1;" parent="1" vertex="1">
          <mxGeometry x="590" y="180.5" width="130" height="69" as="geometry" />
        </mxCell>
        <mxCell id="fNgU-JYUXVwHJF4JS1tp-1" value="" style="endArrow=classic;startArrow=classic;html=1;rounded=0;exitX=0.75;exitY=1;exitDx=0;exitDy=0;entryX=0.25;entryY=0;entryDx=0;entryDy=0;" parent="1" source="XMBtIWdsb8YOJ49aTZew-1" target="-r5Mu0k7ATpPsQTbyTsy-6" edge="1">
          <mxGeometry width="50" height="50" relative="1" as="geometry">
            <mxPoint x="800" y="310" as="sourcePoint" />
            <mxPoint x="850" y="260" as="targetPoint" />
            <Array as="points" />
          </mxGeometry>
        </mxCell>
        <mxCell id="fNgU-JYUXVwHJF4JS1tp-2" value="" style="endArrow=classic;html=1;rounded=0;entryX=0.25;entryY=1;entryDx=0;entryDy=0;exitX=0.75;exitY=0;exitDx=0;exitDy=0;" parent="1" source="-r5Mu0k7ATpPsQTbyTsy-6" target="-r5Mu0k7ATpPsQTbyTsy-7" edge="1">
          <mxGeometry width="50" height="50" relative="1" as="geometry">
            <mxPoint x="820" y="560" as="sourcePoint" />
            <mxPoint x="870" y="510" as="targetPoint" />
          </mxGeometry>
        </mxCell>
        <mxCell id="axQa1woJQ7J7HjtjuS9q-1" value="" style="shape=image;verticalLabelPosition=bottom;labelBackgroundColor=default;verticalAlign=top;aspect=fixed;imageAspect=0;image=data:image/png,iVBORw0KGgoAAAANSUhEUgAAAqoAAALWCAYAAACOZbHQAAAKpGlDQ1BJQ0MgUHJvZmlsZQAASImVlgdQU+kWgP97b3qhBSKd0JsgnQBSQg8gvYtKSAKEEkIgKNiVxRVcCyoioCzoooCCq1JkLYgF26LY+wZZBJR1sWBD5V1gCLv75r0378ycnG9Ozn/KP/efOQBQKRyRKANWACBTmCsO9/NkxMbFM/CDgAwQIAecAJ3DzRGxQkODACoz9u/y/i6AJu0ti8lc//7/fxVFHj+HCwAUinISL4ebifJxVJ9zReJcAJAq1K+/NFc0yZ0oK4vRBlG+Pckp0zw0yUnT/GUqJjLcCwAMOhWBwuGIUwCgaKJ+Rh43Bc1DmY+ylZAnEKI82a9bZmYWD+VDKJugMSKUJ/Mzk/6SJ+VvOZNkOTmcFBlPzzIlBG9BjiiDk/9/Xsf/lswMyUwNI1QpqWL/cNTKoXd2Pz0rUMbCpOCQGRbwpuKnOFXiHzXD3Byv+BnmcbwDZWczgoNmOFngy5blyWVHzjA/xydihsVZ4bJayWIv1gxzxLN1JelRMn8qny3LX5AaGTPDeYLo4BnOSY8InI3xkvnFknBZ/3yhn+dsXV/Z7Jk5f5lXwJadzU2N9JfNzpntny9kzebMiZX1xuN7+8zGRMniRbmeslqijFBZPD/DT+bPyYuQnc1FP8jZs6GyO0zjBITOMIgCNoAJfFC1B1YA5PKX5U4O4ZUlyhcLUlJzGSz0dfEZbCHXci7DxsrGFoDJtzr9KbylT71BiH5l1pf+DAAnFwDgt7O+RHTOlgQAqOazPrNq9BkKADgnz5WI86Z9mMkfLCABeaAM1IA20AcmwALt0AG4AA+0ywAQAiJBHFgMuCAVZAIxWApWgLWgCJSArWAnqADVYB84CA6Do6ANnARnwUVwFdwAd8AjIAUD4CUYBe/BOARBeIgK0SA1SAcyhMwhG4gJuUE+UBAUDsVBiVAKJIQk0ApoPVQClUIVUA1UD/0MnYDOQpehXugB1AcNQ2+gzzACU2BlWAs2gufBTJgFB8KR8CI4Bc6GC+BCeDNcDtfCh+BW+Cx8Fb4DS+GX8BgCEDJCR3QRC4SJeCEhSDySjIiRVUgxUobUIk1IB9KN3EKkyAjyCYPD0DAMjAXGBeOPicJwMdmYVZhNmArMQUwr5jzmFqYPM4r5hqViNbHmWGcsGxuLTcEuxRZhy7B12BbsBewd7AD2PQ6Ho+OMcY44f1wcLg23HLcJtwfXjOvE9eL6cWN4PF4Nb453xYfgOfhcfBF+N/4Q/gz+Jn4A/5FAJugQbAi+hHiCkLCOUEZoIJwm3CQMEsaJCkRDojMxhMgj5hO3EPcTO4jXiQPEcZIiyZjkSookpZHWkspJTaQLpMekt2QyWY/sRA4jC8hryOXkI+RL5D7yJ4oSxYziRUmgSCibKQconZQHlLdUKtWI6kGNp+ZSN1PrqeeoT6kf5WhylnJsOZ7carlKuVa5m3Kv5InyhvIs+cXyBfJl8sfkr8uPKBAVjBS8FDgKqxQqFU4o3FMYU6QpWiuGKGYqblJsULysOKSEVzJS8lHiKRUq7VM6p9RPQ2j6NC8al7aetp92gTagjFM2VmYrpymXKB9W7lEeVVFSsVOJVlmmUqlySkVKR+hGdDY9g76FfpR+l/55jtYc1hz+nI1zmubcnPNBVUPVQ5WvWqzarHpH9bMaQ81HLV1tm1qb2hN1jLqZepj6UvW96hfURzSUNVw0uBrFGkc1HmrCmmaa4ZrLNfdpXtMc09LW8tMSae3WOqc1ok3X9tBO096hfVp7WIem46Yj0Nmhc0bnBUOFwWJkMMoZ5xmjupq6/roS3RrdHt1xPWO9KL11es16T/RJ+kz9ZP0d+l36owY6BgsMVhg0Gjw0JBoyDVMNdxl2G34wMjaKMdpg1GY0ZKxqzDYuMG40fmxCNXE3yTapNbltijNlmqab7jG9YQab2ZulmlWaXTeHzR3MBeZ7zHvnYuc6zRXOrZ17z4JiwbLIs2i06LOkWwZZrrNss3w1z2Be/Lxt87rnfbOyt8qw2m/1yFrJOsB6nXWH9RsbMxuuTaXNbVuqra/tatt229d25nZ8u7129+1p9gvsN9h32X91cHQQOzQ5DDsaOCY6VjneYyozQ5mbmJecsE6eTqudTjp9cnZwznU+6vyni4VLukuDy9B84/n8+fvn97vquXJca1ylbgy3RLcf3aTuuu4c91r3Zx76HjyPOo9BlikrjXWI9crTylPs2eL5wcvZa6VXpzfi7edd7N3jo+QT5VPh89RXzzfFt9F31M/eb7lfpz/WP9B/m/89thaby65njwY4BqwMOB9ICYwIrAh8FmQWJA7qWAAvCFiwfcHjYMNgYXBbCAhhh2wPeRJqHJod+ksYLiw0rDLsebh1+Irw7ghaxJKIhoj3kZ6RWyIfRZlESaK6ouWjE6Lroz/EeMeUxkhj58WujL0apx4niGuPx8dHx9fFjy30Wbhz4UCCfUJRwt1FxouWLbq8WH1xxuJTS+SXcJYcS8QmxiQ2JH7hhHBqOWNJ7KSqpFGuF3cX9yXPg7eDN8x35ZfyB5Ndk0uTh1JcU7anDKe6p5aljgi8BBWC12n+adVpH9JD0g+kT2TEZDRnEjITM08IlYTpwvNZ2lnLsnpF5qIikTTbOXtn9qg4UFyXA+UsymnPVUaXomsSE8l3kr48t7zKvI9Lo5ceW6a4TLjsWr5Z/sb8wQLfgp+WY5Zzl3et0F2xdkXfStbKmlXQqqRVXav1VxeuHljjt+bgWtLa9LW/rrNaV7ru3fqY9R2FWoVrCvu/8/uusUiuSFx0b4PLhurvMd8Lvu/ZaLtx98ZvxbziKyVWJWUlXzZxN135wfqH8h8mNidv7tnisGXvVtxW4da729y3HSxVLC0o7d++YHvrDsaO4h3vdi7ZebnMrqx6F2mXZJe0PKi8fbfB7q27v1SkVtyp9KxsrtKs2lj1YQ9vz829HnubqrWqS6o//yj48X6NX01rrVFt2T7cvrx9z/dH7+/+iflTfZ16XUnd1wPCA9KD4QfP1zvW1zdoNmxphBsljcOHEg7dOOx9uL3Joqmmmd5ccgQckRx58XPiz3ePBh7tOsY81nTc8HhVC62luBVqzW8dbUttk7bHtfeeCDjR1eHS0fKL5S8HTuqerDylcmrLadLpwtMTZwrOjHWKOkfOppzt71rS9ehc7Lnb58PO91wIvHDpou/Fc92s7jOXXC+dvOx8+cQV5pW2qw5XW6/ZX2v51f7Xlh6Hntbrjtfbbzjd6Oid33v6pvvNs7e8b128zb599U7wnd67UXfv30u4J73Puz/0IOPB64d5D8cfrXmMfVz8ROFJ2VPNp7W/mf7WLHWQnurz7rv2LOLZo35u/8vfc37/MlD4nPq8bFBnsH7IZujksO/wjRcLXwy8FL0cHyn6Q/GPqlcmr47/6fHntdHY0YHX4tcTbza9VXt74J3du66x0LGn7zPfj38o/qj28eAn5qfuzzGfB8eXfsF/Kf9q+rXjW+C3xxOZExMijpgztQogqMLJyQC8OYDuDXEA0G4AQFo4vUtPCTS9/08R+E88vW9PiQMAtR4AxKAa0okyqiZrAJBH7eQ6FOkBYFtbmc7svVM7+qQEWaBr71UrB3uf20yfNeAfMr2//6Xvf1owmdUO/NP+C/0JA3wxtxFKAAAAimVYSWZNTQAqAAAACAAEARoABQAAAAEAAAA+ARsABQAAAAEAAABGASgAAwAAAAEAAgAAh2kABAAAAAEAAABOAAAAAAAAAJAAAAABAAAAkAAAAAEAA5KGAAcAAAASAAAAeKACAAQAAAABAAACqqADAAQAAAABAAAC1gAAAABBU0NJSQAAAFNjcmVlbnNob3QUnkxpAAAACXBIWXMAABYlAAAWJQFJUiTwAAAB1mlUWHRYTUw6Y29tLmFkb2JlLnhtcAAAAAAAPHg6eG1wbWV0YSB4bWxuczp4PSJhZG9iZTpuczptZXRhLyIgeDp4bXB0az0iWE1QIENvcmUgNi4wLjAiPgogICA8cmRmOlJERiB4bWxuczpyZGY9Imh0dHA6Ly93d3cudzMub3JnLzE5OTkvMDIvMjItcmRmLXN5bnRheC1ucyMiPgogICAgICA8cmRmOkRlc2NyaXB0aW9uIHJkZjphYm91dD0iIgogICAgICAgICAgICB4bWxuczpleGlmPSJodHRwOi8vbnMuYWRvYmUuY29tL2V4aWYvMS4wLyI+CiAgICAgICAgIDxleGlmOlBpeGVsWURpbWVuc2lvbj43MjY8L2V4aWY6UGl4ZWxZRGltZW5zaW9uPgogICAgICAgICA8ZXhpZjpQaXhlbFhEaW1lbnNpb24+NjgyPC9leGlmOlBpeGVsWERpbWVuc2lvbj4KICAgICAgICAgPGV4aWY6VXNlckNvbW1lbnQ+U2NyZWVuc2hvdDwvZXhpZjpVc2VyQ29tbWVudD4KICAgICAgPC9yZGY6RGVzY3JpcHRpb24+CiAgIDwvcmRmOlJERj4KPC94OnhtcG1ldGE+Cp5nHuIAAAAcaURPVAAAAAIAAAAAAAABawAAACgAAAFrAAABawAAkzPjxhuRAABAAElEQVR4AeydBYAcVdaFX88kwC6+OEETSAiyWAgQd0GD60Jwh8UJ7u4WXALBCe4ES/DgEhJcFtnF4ceSmf7PuVWvuqq6uqdnMpOMnEpmyl5VV39dPX36vHvvy/UYNCbvMOXxL8eFcOLGzHVr7Vyt7Q9XsFyyfeJ89W0fHlzx+dXeE6js9fCtK3391N4TEN8Sfx9CQOIjPpmfH7o/jIDeH3p/tI73R/AsKr+fc6YrrX0MQPnjcYwJVR6Q900xz2FDer022E9BGzxSHe2j4yFps84X7S/xeIn9vL7wL1wkiWOP75963p5IIzxexvNPXI/2F90f4oMbVPefvVFn+P2u95feX7G/77qfij+P9fdWf28r+bzJxd5Hvn1iXsA4459fVTgZHq+i9ysfLfy8rKr7731u3UHXe3nnDyue47H5dDl557X80zc5W3weOz7CEduP9nx+JfcHj6/94lD+vhMf8dHfEf2d1N8B/R3Q34FG+TuAkwTniWRlhTqtkvY8c3j+6HH84yXn5qgGF2LHFA70q7zjMQWz4Hfp9hXuR7OgZXDu0udL/sEJWheegNbr5scW5fhqv/jo/qj875HeL3q/6P2i90ul+qUl/b3gfV3x9frGUBfl3w+V7Y8eGAtZ5wu6/rGT4KPH9uvhq0F/NHM/2gVTuf3BSbxjWjgieUHJ85c7n3/EjOv1J8c8eT6ti4ful6L3t94vEQG9P/T+0Psjejvo8xMo2vb9EAjMwh1RhgdABX8/C8SK/54mz5fez7Pb0eEp0vtzPZlMhZiCPJRk9DBct5hUXiYOydpv7Xk6TJn7a52FR6T22xHWHvvt4FLHp64nfX1aFz/dPwGBzPef3j/6+xK+QXR/FH++6fNDnx/6/Gjg50eVvZ8YkWpT/O8L/+jmgv3Zf3+xNd6eJ4jWQ7GKmNW0Ho0cVXtA/wtqMpCgoRD12xPzrH3RgRkt2T7rmETT1Ep926cO16oIiIAIiIAIiIAIiEAFBCJ5WUFbNjFlWvjSEz/KTpV1vqxt/sCksxptZdY/d7GznYfjiyYmrgeOJ1cT+22dkjNsH+0PHNSgPctX+f2cx84fta9wP05Y/njtF59y95fuD90fuj+K/177v796f+j9ofeH3h/4ewABmK33/P3Bebm/F8H+KtN7bIfz4VfOwWGN9KA/Ptyfeb6gekD8epKOKq8CE0+aPWVtxzbbHOwrtCgsJc+VsT1jU+GYsjsLzbQkAiIgAiIgAiIgAiLQAAKUliWmzF2ZG3GCYHthL5ZspbCl8ChZ2wIxa23C3YhRvSH4ao1yp0GdKghD7qQ+TMwztrPsf9jOnFhrn9GOwapsxyk+D9vXXR8rPC5xPdim9Yi/fx00132h94X+XujvgP4O6O+A/g401t+BoBwrBBf1G3UXp/g8sE4L+61d0J7OaOE4uKXx9Vi7rO32uDykB4RqQUcGXmrRefAo/vqCOdbDYHSuc2KLxHHYkbMAgGC/nSBqlzxfcHz6+lPnQ6PE+bUuHnY/6b7Q+6LwdzD5d0rbxUN/H/T3QX8H6vd3wHfxF7hRoyXvIwbMcEu4I5zl0c1f6LL3xwftouPRgOouWsexxevB4/E3zxc4qmxISzR5ZLie3s6njB/O0D5wUsN1bOKGgvIttAsahocWPU68XXBef/7MOR+n0qnk88IJiq4D28Lnpbn46P7Q+0F/B/R3QH8H9HegZfwdoKCpx1Qv/YPGsfaBwxo+VlyZshH/m8PKAzDZcYHgjDhaI+xI6K30Oo7FeQKhOvAGSsuovZ2Y++38/B1MbGEPa8o02O/3mDj1DeGiLrXEvK5/n2Xdmqsv5jouM7+bf/6/uSoOk6VJBERABERABERABESgVRCoRSnTH3743X348Q/u1de/ck8+87H79IufoBeDAlZUfnmozeBf8JRNX1KB2lRwcANV6/VnuJtHsuvfFKgJUDsl2uIB8jVo5dexyP2mW+mYcj/jU0OJa80oUOdzu+ywuhsysJN/BM1FQAREQAREQAREQATaCIFHxn/orhnzmvvsix9DPUk1CaFo9ijCA6gfbZ0zbDdt6fVmdaAvI/2JI9e18lRBu7BZuDvUr6GTmohJNc3KBwqdWAjWjdbv4g4/sJec0zZyI+ppioAIiIAIiIAIiEAWATqtZ5w30d37wJTQUWUrylVmR9l/06c5CFXqVO5Jzgu6NHBUix7F5C22hnNzW8M1c1EpUoPdlKojt1vV7blLt2CbfouACIiACIiACIiACLR5ApddPcldN/YNE6IUqJwoVilQoyla9tv8PGgRCdVAyXJjIE4pQIOmWA/+Y86tgUgNtGutG7FBF3fEQb2jx9OCCIiACIiACIiACIiACJDAaedMcPfAWfVuKlVmVUysBtWtvDgtOKueXixG1W/CKQr1qkycUrHmYeN6kcqWecQYLLXkPO6Wa7dQd79Hp7kIiIAIiIAIiIAIiEBEgGEAW+90u/vs85/hpAZJVtxpzioT7alcvatKvUrlGlqlnCFGFXVUud02U4z62FTsNAeVOylRwyFV2RDLbHfSUf2ROLUcN2gSAREQAREQAREQAREQgSICj47/wB1zypPQnVSchXqrdFYpUk2H+nnYimqU28Oufy9Vee4wGwtClP8DkcoFbIekzbvpWM4hw38ed9uYLbGsSQREQAREQAREQAREQARKE9hyh9tQCeBnNKAEbUc3FMsWBGBi1VSp/Qq2B2eCWLXyVHYYD+TOYLIsf6zSO/W/KVoDwcoEqtXcnrt2D1trJgIiIAIiIAIiIAIiIALZBC676kVLrArqqsYTqrxYxXFwVak0aZ8Gv02o3ohjsAN1U72vilWUUQ3CANjpb/tr6bQGXf4UwRecNdx177aEnUq/REAEREAEREAEREAERKAUgZcmfeEOOPQhC0ENOvUhVquqoD85+CpjV7G1Olgv6NFqxqhCqGK3CVKboyljUilpvTDlEpKnqHPzFKxYfnDcDm6BBf7ORppEQAREQAREQAREQAREoCSBb7/7za2/6RiIzFCgQlVWYTlwUKlEIVehV31sarAdbXuYUA06+APBiibQosGWwFU14UpnFSKVgpYZ/88/uZey/Uu+HNohAiIgAiIgAiIgAiLgCTD7f93+o9FLD/EJUZqHKuU/P8QqHVXuyaMSQOSo4mATqpSlhYmuaeCw8jd/LDTVYUhVlqhCiADl6stP7104REsiIAIiIAIiIAIiIAIiUIbAWn0vNTGay2GoVJamcuja58ykKQUq3Va/zjn29ISj6qogSNnXz9Y1kKG0XtnFz4PponI/t1Oi1tZA/ebdS0/tYyfQLxEQAREQAREQAREQARGoi0D3fpcgvBSCtKodJCZEJmJSc7WYB33+FrPKXn1uN5eU7mqPQWNidVSpS4Psf8rSnHXz4wC6qLBVc5jTT2UIwEsT9qvrerRfBERABERABERABERABIxA994Xwfyspo8KM5Ruqp+z/56BAMyGgq8Kgco+feyFozr4Bi6zhf1i9lWwSEeVXf1YQyyAOawQqbUQq+z+f/mZ/XmAJhEQAREQAREQAREQARGok8BafS6EOK1Grz+6/hmrav387O43SYrjsQzZaetBTAC7/gOhSnGaYwyq/aNuDctVmTDFus0ZvEp3tdZNmiChWucrogYiIAIiIAIiIAIiIAJGoFtvClUKVIpVdO+bYGW4KoSrTcEcLcIYVjQxR5WqlU4q41QpVG2dI1BhjTGptgCBimUTqgggmPT0AbZfv0RABERABERABERABESgLgLd+l6AtKhAoFYhBMC6/3FQjsuccohdZU8+hKp3VXM90PVPw9W2s4ufDSlWGYvK30yqsu1B9z+7/pFZ5SY9829rqV8iIAIiIAIiIAIiIAIiUBeBbn3OR5Og65/F/pnlD0WKmFTWU2V6FdZtzhmdV8yCGFU6qhCiUKmUqEipwg9XIFSx3dzW/HTMsDc/zZzXSRMlVAFJkwiIgAiIgAiIgAiIQAUEuvW6wJzSHJzTKlOh7aBEIU8tDIC2KX8oYPHPVrHsk6mCpKlAplKoconZ/SZUuc4yVXBSLVa1Zrqb9OzBFVySmoiACIiACIiACIiACIiAc916ngNDlSKVef/4MSe1ylVTqLJEFbZGA6qakIVg7TkYdVTNUA0cVPqpLsdYVMy9UMV6vobBAEGMar4WQnXiQWypSQREQAREQAREQAREQATqJNCt17kQp3RR0f1PoVpNARomVlGo0kXFOme0VBmnihjVGy1GtVA/le2YQEVHFR4quv65zlhVc1SZUIWfSc9KqNb5iqiBCIiACIiACIiACIiAEejW81w4p0iYQvIU41GD2FTUVYWjyiFVTacyhhWt6aKynmrgqHIDhCinoPM/iFFlFYA8Y1QpXOmu0lGtYfe/uv4Nln6JgAiIgAiIgAiIgAhURIBd/4xPddWho2rd/RCtTJyK11I1yQrjlOLVuv7Rzc9Y1EDJWp8/xCjmljzlndRwjvhUxqm+ohjVil4UNRIBERABERABERABEXBuTROq7PJHnCqc0yAuNej6D0ap8jGq1vkfCFgKVdqvtYg7ZTwARSgbMw4V9ioELFxUTLW107AfcarTMceOSRMPtO36JQIiIAIiIAIiIAIiIAJ1EejW6zw0geps1x6SkjGo7e2QYKQqOqjtzCjlgAA0S6sYJmAxqqGjytZMmaKetS5/dP2zwx+qNRSscFXlqBpU/RIBERABERABERABEaicQNxRpUlqghTd/vyHUgDmoDI2lfs4sWwVuv7HQtNCkHJUKjitFKg5OKcWswo1Gziq3E9nFYIVQtUK/ivrnww1iYAIiIAIiIAIiIAIVECAWf9W8L8d4lQxQpWNTkWZCkEK8WkxqXk6rVyHLA2TqcbSPsV//NiDBIlUdFEtmYqJVLafc25jjOp0xahW8IKoiQiIgAiIgAiIgAiIQEAgcFTRnY8YVe+oMtw0qKkKt5QCla4pxCt/275eQzKEKhxVWKgFoQon1Qr+w1WlSLWs/4mHBI+q3yIgAiIgAiIgAiIgAiJQB4Fuvc6G+ER8KjL/LaPfSlJRlCLBiln/rAIARzUhVK3r37r4Az+VUanJGFV0+fsYVc4tyYrlqSRU63g9tFsEREAEREAEREAERCAk0K3n2bBJkfHvi/5blz8jVFkBIOjyT8aoYhsdVehPTHBNzWgNsvyRNUV9iq3M/mdoAJxUuqw2Z8F/DaGqO08EREAEREAEREAERKAyAt16sY4q66aGjiprqqLrv8pxHedgtr9NaGMBqXBbA6HK+NTAUaU0ZQRrIes/5qii69+Sq+CqylENWWomAiIgAiIgAiIgAiJQJwFzVOGmshyVjU5FYQqFasOpsusfy95RZQAANlCo3oRcKYhUuqYmVrEci1G10ajotjI+NRSqVvBfWf91viBqIAIiIAIiIAIiIAIiEBBYE1n/JlK9UMVQqoxHjYRqFKPKBCsKV/zuCaEKmzQSqVwqjlGlk8o4gMBRZea/RqbSbScCIiACIiACIiACIlApAcv6Dx1VB5EalKUKhlNNxqjSTw3EauCosoaqSdVgbsuIR6XLao4q41UhVCNHVUK10tdE7URABERABERABERABEAgLlSDrn8EpsJdtWSqsI4qBaoXqTa3rv+Yo0qRyp9aCNVcTKjKUdU9JgIiIAIiIAIiIAIi0FAClQjVIEY17Pqnq5qMUeVDM0YV7mlNzFGNYlSDoVSZ+f+KYlQb+jrpOBEQAREQAREQARFocwQYo8qs/yqf9R+LUWUiVa4abmqsjmrZGNXAUYUwxT+WqpKj2ubuJz1hERABERABERABEWg0AnFHNR2jmmeZKiRTeUfVd//DUb0Z4adwUO0yfIwq41GxjLhUL1SLY1QParQL14lEQAREQAREQAREQARaN4E1e8JRTZSn8jGqnMNRZYkqRKx6kUoaJYVqLYRqLiZUix1VCVUC1CQCIiACIiACIiACpQiMu+s+N3nKVDd58pRSTeq9fdMRG7pNN9mw3sfN6gMqEap5CFVGqAZiNRSqvHDr6kf9VNZUzVXBR51O8xU5/xCrOcSs1taw8H+Nq0GJKucwMtWEA3mYJhEQAREQAREQAREQgQwCFKnj7r4vY8+Mb2qJYrVb7/PwxKtdNWNTGataXQ3diZx/K/SPeqrtUCC1FkIVYQB5xKoyFAB1VG9min/U9R/UUYUwDR1VRKfCWc2KUZWjOuO3mc4gAiIgAiIgAiLQWglsv+PuTfbUunbt4o46omUNZx93VH2Mah6ClQWq8hCrVej6z3ZUEY7Krn0IWKuXGjiodFTzcFRrzFmtpZPqHVXMJ02Uo9pkd59OLAIiIAIiIAItjADdw65dO7uuK3RpYVfedJfblEKVV33j9Vc03cU3wZm79YKjSmHqHVXMKUyrsY2qswpZ/3RYc3RYoU05IEDJGFUlUzXBK6RTioAIiIAIiEArIzD5vSnulNPOSTyro0YdLMEKIhKqidsCBf8rT6aKYlR7D70FYalBbCosU5wRPzmMRMVQVCZT4SdYR3gA6qdynXPFqCbha00EREAEREAE2iKBU04/pyhRqCXGTzbFayehmqTKGNUcaqiaU8paqtXM8GfHf5j1j9BVl+evMJmKo1X1olAtGpkKQhX6NBKqSJ6yElZeqHII1WbS9X/11de49957Dxfb8GmzzTZz66yzdsNPoCNFoBUQ+Oabb9yNY29yb7/9tvv888/dV1997RZaaCHXqVNH16ljJ7cC4qE23GAD1759+1bwbPUUREAEGotAKTHW0rqlG4tH/Dyl2MTbzMhyS2O8Jrr+g/JU7N6HUEWylCVVeaFK3QrhGglVCNacOaoNEKrNJUZ1m223c+PHPzEjr7M7+6wz3Q47/GuGzqGDRaClEqBAPf74E929993npk2bVvZpLLdcJ7Q9zg0ZPLhsO+0UARFoOwSyMttbYqJPU7xiEqpJqoxRbbBQZd4/k6es6x8OKgoBBHVUzVrlOjbEHFUJ1SR8rYlASyTw7rvvum232959+eVX9br8gQMHuOuvu9bNNtts9TquOTa++eZb3IMPPpS4tA033MBtueUWiW0taeX1199w55xzbuKSO/FLxnHHJrZpRQQag4BiVEtTlFBNsrFkKhT8Zzkq76j6rH8oWP6HEq2mj4oD+dsc1VsZooq4UwalcmKMKmRrDYUpKldRqNr6dGtTi3YcpWrShAOC5rP4txzVWfwC6OFbLIG3337HbbTxCPfrr7826DmMHLmjO/OM0xt0bHM66PgTTnSXXjo6cUn77bevO+booxLbWtLKY48/7rbbLtlLtOYaa7iHHnqgJT0NXWsLI0DBOnny1BZZiL6pUEuoJsl2632BZfRXIcvfhCrqqFKQIu8fMwhVZP2jThW2MQYAIpXbGKMKNYpqqYGjGtRRLTiqVvDfHNbAUeU6RgNoNuWpsoTqsssu61ZcsWuSTpm1HXfYwfXr17dMC+0SgdZFoAYDeAwdNty9+eZbRU+M3fvdu3d3K620ovv551/cRx995O677373xx9/FLW98orL3cYbb1S0vSVtkFBtSa+WrlUEWhYBCdXk6xV3VB2TqhCj6h3VoI4q7dLAUbVyVZGjWq8YVSZWsY7qv5OPPovWsoTqnnvs7k488YRZdEV6WBFo/gRGX3a5O+6444sudJdddnYnn3Siq7ZvuYXdDA3YfY893EsvvVzYiKV5553XvfvOWy06wUpCNfGSakUERKARCUioJmF263U+jFNk+XtHtbJkKnT9xxxV6/ovG6Pa+oUq3SaLyQ35ciivdu3aRbQZK/HRRx+7qVOnuuWWWw4/nWBP06ounnguViX45JNPXceOyyKDulOD4/qY9PLZZ59ZNnaHDou7FVZYwc0555zFD5qxJZ0kw28xXozwub711tuIU/wSxZpXcMsss0zGGQqbmBHObuNFF1vUrdi1q5t99tltJ7lMnz690BBL5FaKTbwhr4Hn/Qw/P/7wozEl20oyzHksOcen9OP+9NPP7o03Xkey0HTXBcWoOyy+eEXXFT8nl/k4H8JhfH/q+26BBRZwnTsv7/7xj3+km0XrWdfGneWeFxlaPE50FuRAQjjyNWuMiedeY41u7j94veMTYzIvvujC+KbE8qeffur69O3vfv/998T2++69x629dvfEtqwVHsdzfP7FF8axS+fObumll674eaW5pN+XZP3Bhx/aa7PEEkvYa/O3v/0t61KMr79XTzrpZHfZ5cmi2fvss7c7ctQRdmz8vZJ5snAj32NTMJ73xx9/7BbDe4M9O7xHZmTia8Q44nbV7dzyuNfqum/9+3z8+PFuhx13Sjz0GquvDmf8nmhbuXuQjcjnC7xW/Nv1f//3f27JJZd0Sy21lJtvvnmjc2hBBESgPAEJ1SQfClWOSMUC//WMUa1PHVXGqMJRndB6HdXBQ4ZC1LwZ0eUH1Zf/+dz98MMP7pBDD3PPPDPB/fLLL9F+CpX+/fq5c8892/kPRgq/448/wb362mv2R943poDadput3UlwrXxbvy9rTmF09933uKuvudZNmjQp0YQf1Pzg2GqrLd2/D9g/IabjDfkhs2zH5eKbnI9XY2zehRdd7L7//nvbP3TIEHfDDdcn2nKFz3fUkUdZhYXvvvsu2s/n02Pddd1FEDiv4bmO3GnnaB8XLrvsUsQrbZLYFl/5+eef3ZgxN7hrr7vehGp8Hz9Il19+eXfIwQe5DTZYP74rsczj+brEpzNOP83ttNNIlFsa6y6++FITD3Hxt+CCC7pzzj7LDR8+LH5YyeW77r7bXXLJpSZE/vzzz0Q7vv67776b2xfiJp1cNGHCBLfZ5lsm2nPlmaeftC8a6R3/+9//3MqrrFokVK+68gq30UYbpps3aJ335LBh6xUdO/7xx9wqq6xctD2+YUeIn4cefji+yR126CHukENKD+PHLzVXXX21u+uuu4tE7hxzzOFWXnlld+wxR9dZIo5c/vvf/0aPTRE4+d23Hb/AHXLIYe7Z555LxNvy/UFmZ515ZpG4euCBB91OO+8Snavcgn+vZLX58MOP3OjRo91rr79u98Zff/2VaMb7bP/993M777yTm63Csl7823EC4mbfePNN99NPPyXOx78ZfC8wKYqlw+LTDz/+6Lp0qTzk6fPPPom+ZMbPwy+MZ551trvzznFFXzzZjl8CDsBz2mbbbSp+TvHza7l1EvCZ/8z279qls+JUw5dZQjV5v3frDUcVIjVyVCuro3prPWNU4Vy18q7/tFAl5pvG3ugOhRhKu1Dxl4Ai77rrrnHPPvssBNsuiQ/NeDsu04V95OGH3Nxzz53eFa1TxO2+x57uiSeejLaVWqBbcsklF1vNy3SbLKHKx99t113d4UeMSjQfPnw4srmvSWyjQ7TDDiPdFDjIpSZ+IPfs2cPdc8+9iSblhCrP969/7QjH5pPEMVkrdPtOO/WUTF5ZQvXggw503377rbseIrbcdOSRo0zkl2pDgU5Gd9xxZ6km0Xa65ZdcfCHcyjWibfyisepqayQEFncehcc9AF8u0tNNN93s/n3gQYnNdM0pyCjqGmM66eRT8MXi4sSpVl31n+6xRx9JbMtaOe/8C9xppyUTqFiD+N577s5q7i6/4kr7wpZ2vNONKSq33247d+yxxyCcYJ70bltPC1V+Sbr3nrvczrvs5r7++uvMY7iRLuSjjz6cEHaNIVTJ8PQzzqyzpBevgV8ob7n5Jnvfcz1roiPML448Z1rwptvPM8887iSEN22DL71+agyhetVVVzuGQtT1+HxMCtZbbrnJdcaXSU1tm4AXqXEKKvgf0JBQjd8VzsUd1frFqFrWP7P7cUImS1mWPzYipLUWojRYh5NqIQHslmzeWf8zGqOaJVTpqvKDpK6pd69e7oUXX6zow+vwww9zFFRZE7tJhw4d7t6bMiVrd+Y2xgu++MJzRV3RWUKVbiXFQ/o5sSzP1VddGZ2fDl+vXn0cPwQbMpUSqpMnT3brb7BRWTGffjx2L7ObOT1lCVU+P98Nmm4fX6dDNenlFxMixu/nh3X/AQPd++9/4DfVOWeX79NPPZVw8I4++lh3xZUFpjzJWmut5R64PynquZ2OdLpU0uabb+YuxZeQxpq22nob9+STTyVOt/XWW7kLL0CXTB0T3WR+gYpPDEvICn845dTT3AUXXBhvWudy9+5rmejNCnNIC1WerNLXea8994BLeXz0+DMqVC8dfZkJ8OiEFSzQOX74oQeKXHd/6AH/PtCxVFalE7nfd+/drlu3bnbIjArVRx97zL6Qpv8mlLueZRAm9MjDD7r555+/XDPta+UEskam4lNuacXom+JlklBNUo2y/lGiKsekKcuHwLhUcFkpQoOsf4S5BXWq4L4i67/30NYXozpixMZu9912TdLJWJt//n9kOpBZQtUfTmGz/PLLuf/850sX7wL3++NzOj6MI6XYY/dkemKs1xuvv5YZAnDkUUc7uhvpaa655nLLI3aTXaBZ7i67u9ntHZ+yhGp8f3yZ7K64/LJo0zHHHAdXLBm/53cyvrCGcWz/+Y/fVDTPEqqMfRs2fL3MjPOFF17YLdGhg/sYLitDLdJTVhd4llCNH7csYgXbt29nsXZZThG7Zo8+6sj4IbZ84YUXuZNPObVo+9///nfH+Eo+b7626YmhDnzefnr11VfxfJOhCxRiTEKKC7y/EOPIrlu+XvGJbv6gQQPjm2Zouf+AQe6dd95JnOPfBxzgjjwyiMlM7GjgyosvvuQ2HrFJ0Rchno4O59xwBBnjnSWKGAaw7777FD1yllD1jfiasJeAo2llvSZ0o99EjLKPr3z55Zfd+aGInop4Y8bOxicKML7POXXq2DGRnMn38lrd1ymqgrDIIou4oUMGW1zqHeg2Zxd6emIYy2GHHZrebGE9661fHNrBvyFdunSxe4LXGA9f4Ul4bz/15Hj7G8IyY3vsuZedmwxYSzU+8Yssvwj46dprr4m67vk6dO26UtEX0h491kWYyDD3DwjRB1Br9oknnnDp0JdtEQJw/nnn+tNq3gYJZIkxFfwPboQsNo15i7S0LwNxR7XyGNVht7EildVLZcH/oDxVLT5AaLNiHjmscFZR8L8G8anc/vIzxd2WjQm/0nNlZf1Xeux66w131+GPdXrKEqp0bi655CK3/nrrmYvDP+znnnuexXKlj+c63dLddt3FsYuOUykx9eQTj6MM0ErWxv9i8lXffgOKPpT23nsv6zLmtXBi/ONuu+8ZxZdyGz/YnnrqiUR3XF1Cld2S7PplwgZjFL1IKPWB3BUJVDeMuc66M/mY7Hbdb78D3NPPPMPVxJQlVK+99rqikAMKifPwYbfZppvY8fxAZlwj3cj4hzOv9blnJyRcqVJsWZSeH6AUEJwoYnYcObLoA7xvnz7u9ttvtTb+Fz/o116nR5Hje9CB/0YIyCFRItqYG26E8Di8SHC99ebr0ePynBQ2aTHExKV4UfmnnnrabblVoSuXx9GpevutN8omX7FdfaYswXf6aadaHGV9zlOubb/+Ay0JKN6GX0BuvHEMSsetaJvpzO6zz37ukUcfjTdzs2MQgSeeGB8JRb8z67qZyDf60kvQ+zAkYsTX5JBDisXg/ffdmxBq/rz1zfpnOMMxxxzrD7f5/PPNh7j216LwDN6zBx98qMVIxxtmhUmw7XB8kWHscHzi/Xv5ZaOjvyEU/zvvsmuREL/88tFukxEj4oe6+tZRfRcJW3zN4hOF/8QJzySS3a648iq8J4+JN3MU9S+9+Hxim1baFgF1/Zd+vSVUk2zW6oNeNrikTKayrn84qvk8HdXARa2qohKFi4p/Vp4K21FHFUI1lvUfCNVydVQhVC1GteUX/K+PUGV8JEv3xCd2na/yz9UsFjK+Pd197vf16dOvqCv/hhuuhwszxDexOV08unnxiR9aN980Nr7JlsfedJM78MBkIgtjHxkD6adSQnXRRRd14+68o2Tc3FlIqDjr7HP8aWxO4T3p5ZciZ8rvpMvCbvIPPvjQb7J5llAdvt4G7pVXXkm0K+Wi7b3PvkXxobfdeouL173NEqrsZn3owfuLkkWyxCBdKYZMxKfTTz/DnXtesiucribdzfTE2OV0LCzjEQcM6B81ZVwn4zvjExN96BD7KctF3xFD+56FIX4bc1q8w5JFSTIUe5tttmmjPAy/aLE6QHxiDOqzEycU3Wt8Dw0eMgxVJN6ON7cveumwmCyhmiXSeCK6k+nkw1LPsb5ClUL48cceT1wvX2sOgBCfmNy1ySabxTeZ6Pzg/WQ4D79wphPuKHzfxJcdX1HDn4RJfXvsEbimflvW4AT1FaqMweZ7LT5lVYFgeMGOO45MfHnka8v7na62prZLgGJ1MqpeTJ48xSk+tXAfSKgWWHCpWy98DlYFWf+Vx6jSUS0hVCNHFbGpecZnekcVQvXlVjAyVX2E6q233Oz69++XJI41xlmyGzE+lSqCTjfk/vsfiDd1WU5Wlvt2+223ur59+ySO5Qqdv5VW/mdie1oAlRKqT8N5pTtaatpt9z2KkqN23203d/LJJ2YessmmmyGRLCn40kKC3eUsjRSf6BC/P/W9zA+6u++5Bxn1e8abW2gDQxz8lCVUmRl9zdVX+SbRnPVAV1t9jWidC8zUZwY0P3D9lBUrSved90x6yhIFDCVgSIGfpiDWuDe+qMQnJtK9N/mdyAnsttbaVn4s3ubuu8Y5dr825rTY4ksUlfMaPfrSyM2e0cfK+oJDIUcxkzXdfvsdbp99C6zYJqt9llAtVT3hwIMOdmPHJh9vFMpNHfjv4i/Y9RWqWc8haxtFOFmnJ4Z8MPnQT1dedZU76qikS7kbQpdOOfkk3ySa873csdPyCaHIv0v8+xSfsu7JctULssJTGAPL1yzr7078sbQsAiJQmoCEapLNWhiZqkioIla14KhCajJ2Ff8KBf8hVBtUR7UZC1XGkTKWs66JDtkF559X1Cyr67+UUN1yq23Q1f5U4hxXXHGZG7HxxoltXNl3v/3dbbfdntiedhI5+s9SSy+baMMVJtPweWVNFJS+JiT3s/uepYb8VEqofvH5p4kudN/ez4cMHVbUTX4Husj7oKs8a6pEqI4f/wTK2myXOJzd+Sccf1xim1/5EHUx03Gi6WS5+ghV1lNdvnMXf/po/tWXX0Td+dyY5X6/8PxzVgs3OihcoCD59df/S2yeffbZom5gv4PhHEwii0933nGb6927t1VU6N27b3yX1eJ87dVXEl2viQYNXFlxpVWKegFYWo1Z940x0fGj8xefjsfru/deyS8cfj9DR/656up+1eaMp5w6ZXLiy0N9hGpWAhvDNo444vDE43BlRoUqQxjeeOMNi1tn3PjXX33lGG/MKSs5Kh0WcsSoI901KD8Xn84552z3r+2zXw8+HqIFoqka5V3Sf+/qK1QZu83qFFlx9wzV6Nunt92n6667TsW1m6ML1IIItGECEqrJF5/JVF6oRjGqEKbVYdc/Z16oOpOrkKx9KFTxR4+Z/MHEv4B0UBEEgB3cns+hux8fxqyfWosfzptzjGpayCQx1b02K4UqSzV1X3vGHDR+aH304fvRE22oUO2ywopFCU0TJjxtiUTRyWMLlQjVrFCF2CkqWkzXem1socr446WX6ViUNPLhB1Mzy2NVdNFolJWc5R3qiy++xJ2IwvPxKZ2pHt83I8tZ3eKl3MaGPA6TqJ5//oXEoeUcW/JeYsmlE1+2eDCrMfBLjJ+am1BlzDFjNllSjO+xSqe0UN1iy63d008/nTh8zJjr3LChQxPb6rNSX6HKc09EWb0tttiqyG2PPy57P9Zccw2rjcwkqnTd4HhbLYuACDgnoZq8CxijmoMarcLwqaynaln/iFG1ZWynUIWSDX8gUtHTmesdOqqMTaWODX4oVLkYJlOFXf95dP2bUGWMajN2VFuyUGVcXVb2L16Nek1ffPFZlNHbEKFKh5axjOlpClwuxs9lTZUIVZYrYtmiGZlYjufBB+6LTtHYQjWrzA/fLN98/WX0mA1ZYBb4mt2SIzgts0yQiLLRxiPcCy+8mDjto4887FZbbdXEtsZYyYr7LdXV3JDHy0qkKufE8zE6d1nB/fjjT4mHmzjxmURSYHMSqow/3Qq9KVlVJBJPImMlLVSznPZ77r7L0b1s6NQQocrHYs1mOrz8wlzXxFJsjLFmqTVNIkACjFPt2rWz64rR/zQFBCRUk3eCladCjGpU8L+KorTQ9R8IVSRawU1NOqoQpVlC1dxUOqoQqkygihxVi1Ftvln/s1qopuMy/ctUSdd/YziqfLx4t35DhCrPkdVFnHa52M5PlQjVxnBU11xzTUuU8o/b2EKV511m2U7ut99+8w9h8xl1VHmSrJhmZqPThWQIgZ86oiTSC88/61cbdZ4VQ1oqpjf9wMw8f3z8+MTmRVBSbFdUuPATB3FIZ/IzXrjU6GKsd0tH1bp2/EkwZ69AvEu7uQhVjkY1HNU/0sKaQ4yyvNuSKITP8luc9tprb5vHf6WF6rbbbe8efzzJdFY4qv4aKb6vHzPG4ulfeunlxH3p2/g5w5EoqpviC5V/DM2bP4HJ701xp5yWTLw9atTBEqx46SRUk/fvWr3hqEZCFY4qlilU6bLajzmqJYQq5ShDV72jytwpOqomVs1RxYeo7/qXUI3IZ8WozohQZTcohzuNj6fOpAaOGjTnnJVn1dKp88lBDRWqWdn55ZyeSoQqs/153vjEhK7rrr06vqns8uyzz+EWX3yxqE1TCNWsWqOlYlSjC6lg4eqrr7GhaONN//nPVYpqyjLjnSXOmmLKSl6iIGQZrLoytzlqFru641N6sICsmM+TTz6pZG1jxnWuvvqa8VM6VqR4E+We4lNzEaosO3XDjcnqD0NQP5XJdiwPF58WXqRwn/rtaaGaFU9bLkbVn6fcvKGOavqc7F148sknUabqWccBAeJD2Pq2HJHurnF3+lXN2yCBrIL/yvwPbgQJ1eQbgkK1EKMaCFXGpDKZygvVMjGqXqRyDoFqMaqhUMVIVajsXnBUIWBffiaZpZu8lJm3llVHtSU7qiSXFSN77TVXu/XXX69BYBsqVPfaax9357hxiccslZDCRpUIVRYlZ9ZyfGLx+3feftMKpce3V7rcFEJ1l113c/fdd3/iEq6/7lrUuxyW2MYVDjHLWMX4xEzprBhDVmlg4lDcPY0f55fT3d5+e2PMmbzEOGgm7sWniy68AN3ZW8Y3JZYZDrJuj15F9WA5ohXFqp9uHDvWHXTQIX7V5qUqbHDnrbfe5vbb/4BEe47wduedycTD5iJUBwwcXFRO64nxj7uVV07WQ+YTqkSoMpGK3e3xyccux7dxmV9kjz32eFcDs8BPjONlPHN8qq9Q5d+I+MQvx+khe+l8X4EasieceFK8qX0h/uTjD0smeyYaa6VVEiglxlpaMfqmeHFKsUk/FgdI2HTEBki4nerG3V0IbUu3S6+3NMZr9bnIBGnQ9c8YVXy5txhVL1TZ5U9bNez69zGq0KWUpuaoMgQgBwfVO6pW8D/mqFrBfzmq0b2S5ahm1Q7lAZV0/bNdlmvFUaDGP/5oVPyb7eITXbLvvv/eUaSnp4YKVY7cc2oqnpQF6Nn9z9JK8alUHdUsdzmr/Fa5rmcKpJOQaDR8+HDHgunpqSmEalb3OF2zG28Yk354l5UIxdHBdtppZFFbbsi6Z+INOQAEB4Joyumkk09xHKs+PrEg/62oUetHZIrv4/LZ55zrzjzzrPTmoqSn115/3Yb/jTfkl5Hnn5voll122fhm6+5ndYk33ngzsT3ry+bMFKrbbLN1ZkUQfsFYcqllihK/Xn7pBcf3aHziyGpMSExPaUc1q94qRyyjo5xOVuKgAMOGJb+wpsvR8fGyhCoFLd+7WRNHRKN76ifGob/33rtRr4zfznnPXr2LhhVmHeL0axs/Rsutm0BWwX+NTBW85pUI1Sz3OYtp1l3U4oRqzFGFSkVVGxT8Dx1VZlIxZNU7qlF5Ksv6j2JUiYF9/t5RhWxllr8pWTqqTK7CHCr25QnN11HdeOON3K67FGLmsl7c+Lall17Kuhr9tixHsz7lqWZUqH700ccYJWZAkeO1CspOnXXmGahDGtQBZUwfY1qvvvpaG0ueXf0sY5Uu3N5QocoPWib/0AWNT+yqvg7uIoUNJ474tD8csUpHpsoqLs7z8AP3pBNPtLJMXKeDM3nyexij/UQ3YeJEG2TgvnvvsSElud9PTSFUWaaHruMvv/ziH8bmHALzYPzQcWKM4gMPPmA1MNPxrKUcNp7klltudfsf8O/EeeMrxxx9FEb6ShZfj+9vjGWW6Vqre/eiOEsKlKMxhOla3daEYF3esRQSS4SNvuzyIoeZ1zF48CA39sYbii4pK051CcRuckQzPxIb7ytySNcWZhgCRa0fUcyfvKmE6iWXXFrkEjK0hLHDvOb0xDrArAccn9LJaOwi3xwZ9Bz8ID1x2GQmIsWnrEoMZHsZ6tvySyHLXbEM3olwMznka3zKCqvI+rLAY8aNu8P17NGjSIBuutnmbuLEZEw0S/dRsMcnxuf26t0n0SPA14t1kPme0NQ2CShGtfTrXk6oViLm6xKsLU+owlGFGg2y/pnlz3ApuqmMU0WGP0amKmT901fFPy9UvaNKLcvyVN5RbYkxqqVvmew9J510ottj992inbNaqPJCLh19mTv++BOia4ovsFg4EzY+QpfzTz8lM6VZPuaWm8dazUN/TEOFKo/PGlHJn5dxsNOQeMEYw1JTKdG+/b92cI8++ljRYbxRKQ7mn38+NwUB+n/i/PGpw+KLu4ceeiDxxaIphCof89JLR1uNzfjjc5lxnJ06dYQImWJiOr2/D+qi3oH6qKUmir+VUMs0/dzYns//lUkvZQqkUudr6PYsgRY/F4VHuRAFvk7jxz+WWQWCpZt69eqT+RwpAueddz4IrqmZ5y9Vc7WphCpjL7fffof4U4+W+Rzp6MfjZXfaeRf3wAMPRm38ApOpOBzv1PenWv3hUhUBsgYpoLCkU5pOKGPMK78wfIn3WPq9zsdlvdnXXp2USDrj9qwQG27nxL8fPC/jwv2X3iwGdMGZuMh608svt5wNbPLQw4/Yl+PgTMHv/v2LBxyI79dy2yFAwcqu60032bDtPOk6nmmWUPXd/JVWR6BY5ZQVEtDyhGqDYlRvZ7VU5k3hUxIiFWsOdVNhpJqTSvc0X4WV6XRWKWCD+ctPN19H1V7RevxqjkKVsWjMBGeWdX0mdhnee+/dibI+MyJU6Rr27tPXffPNN/W5jKhtKaFKF3bAwEGZBcajgzMW1lh9dYtdnHPOOaO9TSVU6WINHDDIivFHD1bHAoduvWnsDQkhnXVIKbHTvfta5uRlHdPY2+hY77vv/kXF+St5HHZJ8z7j61FqygodKdXWb1911X+i9Nj90WhdfjvnTSVU6Z4zHCXdc+Afm1/+/oNyb35699133VCISoa7NGSiq9mrZ8+iQxnXy/jeSie632PGXO/WXrt75iFZyZDxhg/cf2+itFTW0M3x9lnLDAWi81wqXCTrGG0TgbZEIC1UZ6QaQpa72uKEal84quzqR5c/57l26ImpxRxfjHN0Vtkxk8cvmDYo4o/tWOw97PZwCFWsULDiX2UxqhKqfLNlxRuWKm5eaYyqfxNTSFyIOMLzMeZ8lvvm2/n5Cius4EZfenHUteq3z4hQ5Tk47OiOI0cWxRH683O+DNxVukF00uJTKaHKNt9++61jxvO4u+6KH1JyefiwYe78C84rcvCaSqjyQihejjr6mMwRhtIX2q9fPwzbemWRu5Vux3UmajFhKz1lDambbtOY6/xCxLq2l6Frn/dbJRMdNI4kxvutrond+gcfcmjRwBHp4+gkM4Ho6KOPLBrf3rdtKqHK81+OJKFjjjnWP1Rinhaq3MnwjYMOPqQoVjV+4OqrrWardEvjU6nQDr5/Lrv8CnfqKafW+X5nvCmHN11uuU7xUyeWGfc7dNhwS8BK7AhX0kKVm++5514Lx4hXHck6ltv4pXjsjWPMdS3VRttFoK0T8EI1Kw61oWzigrXFCdXeF0VZ/5XFqEKb9oFQ5R9IGqmRo2rJUzFH1Y9M5R1V2K3NOeu/vi9+YzuqjSVU/fN4//0PbBjR1xHbRicyPdHV2mKLzd0OO/wr04maUaHKx2OG+LHHHmf1MePXMDuctY0QE8zkIY6ww/JT8amSagWsIXnhRRdZPGq6e5POXd++fdyOO+7ghgweHD91tNyUQtU/yIMPPmTJR5MRc5iOR2WX79bIlj8QQ3SyS7WSiW5c1xVXTrh47Gpnok18HPhKztUYbT744EN38SWXWDgGv0CkJzpnXbuu4A7Yf39HoVqfifGaLFnF3oEvvvgi0b3NruuVVlrRsRwXh5ItNzWlUOXfQIpPjg6WHkZ0HtRE/eD9KUWXNmXKFPuilY7NZkwp79dRGK71+uvHuCOPOjpxbHrAisROrDCulbwoNNPXQl6s/nHUkaPcQgstlD60aJ3MWVHgnXfeSezjffoABs3wYjq+k47xWWefY8X/swQrwyH22msPG3K31LDO8fNpWQTaMgGW7mI2f6Xd/PVhRcHa0sIsgqz/mKOKzz06qJGjCgeVdVUjRxXGaiBUUYrKev7hplKeVhaj2jwcVT6ltjQxCYYfkPwAW3jhhRxF0sIouD4zJwrVt9952y2+2GKuc+fOkThOZw7zmh555KHMD8NS18vSSYz9/GvaX27RRRZ1HTsuW5FDWep8jb2dgoau8RTEV/5tDtZz7WDxqnQE6zMxfnGVVVZNZFrTkb3t1mSN0vqcszHa0mH9AMlTFJc/IeyDST/LYvCBUqOR1fcxmZxGIfbzz7+4FSB8GXPcnCa6yp999rmVHJt99tlQSq2T3eflXl+67hT63/z3Gwu5Ye9Cufb1eb4sZ/buu5PN7eZrwXjVdCWAus7He/bLr76y50Th2XHZjhiadsnofVvqeH45teeFsJ9p0zEoQ4cl7O/NvPMGgxmUOk7bRUAERKAUgbVijqolUMWy/rPrqFKoDr+Dvf3I5o+Xp4JwxQcWA1etPBXqqOZRR5WBq1aeCttfenqfUteh7a2QALvnR2y8MeJK7OtO0TN85plnLMs5voMf1pPffdu6COPbtexcVtH9dD1ScRIBERABERCB1kSge99LoDyrXDWDUZnpH9ZRZcF/bqfGoBrlPytPBR2R602hGnNULUYVghSbCkLVQgGYXRUKVdZRfaZpy+e0phempT+Xq68ORlPq27cvyuVcUlSYn92KO+y4k+NY9vGpOTiE8etpLsvkNHDQ4ERpKIZQvPPOWyXr5DaXa9d1iIAIiIAIiEBDCazVB/W74aJ6oVpURxWdk3kKWC9U8UCBoxoKVezGJmjYUKhaaSorB4BMf2b723YIViy/JKHa0NepRR1nGc5Dh0fJHRRUK6+yCsrarG5dh++//77FsmWVMbr5prFu4MABLer5NtXFslA741zfeust9+qrrxWVGtp8882sBm5TPb7OKwIiIAIiIAKzmkD3UKhGI1NBtDIm1br96aiGQhXyFNtZByAUqhwuNRGjGnNUS9ZRlVCd1a/3THn8PfbYq0Hli/bea0/HepiaAgLelc7iQfH/9NNPWTxu1n5tEwEREAEREIHWQCDuqGbGqMYcVQpVk6t90fXPYHt29TMiIHBVUwX/ra5qrOsfQvalp9X13xpumrqeA5Nfdt5lNwipp+tqavsZX7L7bruaSC0Vz1rRiVpZo3JCtVS5olaGQE9HBERABESgjRPo3hdd/+jaZ9c/hSqGtIPsRBUAuKmZyVRQqtb1T0eVEtV3/TMWFdoVP0ii4g9iVNnd77v+GQagGNW2dbc9/MgjNqb9pEmvZNZlnH322d2A/v0xlOq+qquYcWtkCVU6qaNGHeH23nuvjCO0SQREQAREQARaFwE6qjl095fq+rcCOhSwgZcac1SZ4B9KVShSKtQg2x9zilMLDKidbqK1Jo/sf1QEeOkZZf23rtunsmfDGpsvvzzJsYwUS92wluMiiyxs4jQ+WlRlZ2s7raYilpfF7z/++GM3B0Q9yx5tvtmmFdXCbDuU9ExFQAREQARaM4HufZD1j57X6lw7c1BdFeYckcocVnT1w1nNM9PfolMpV/Gv7/A7YZqmY1RZloqWasFRpYsaz/qXUG3Nt5KemwiIgAiIgAiIgAg0LoFAqMa6/sNkqqjrHyI1zzAA/AtkKn6bULVufnb++x8IVIYDeKGKOqoOdVTprgZ1VBmjKke1cV8+nU0EREAEREAEREAEWi+BoI5qTKiijmouH8anUqAy7T/I9ccccpXuah84qsyk8ln/DAHIQaB6R9UK/mfUUZWj2npvJD0zERABERABERABEWhsAnFH1Qr+xxxVK/gfc1St4D8uIOr6p5da0lGNJVPJUTVQ+iUCIiACIiACIiACIlAPAkWOKoRqLlZHtchRxbkjoeodVROrMUfVZ/0rRrUer4SaioAIiIAIiIAIiIAIJAjEHVUrTxVzVIOi/5kxquOY28+8KchWH6OKTP8a2xpk/TNGdTqz/32M6nT30lOKUU3Q14oIiIAIiIAIiIAIiEBJAt37IesfDmo1s/3DOqq5WsamhqNTcSgqxKwyDAC/0Aa/+wwflxGjioL/plkZq4psf0SwJh1VCFWVpwIXTSIgAiIgAiIgAiIgApUQCBzVdlbwvxCjyqFTUTsV4tQPocqs/1iMKhxV81T5EKGjytqpMFGZYlWoo4ptPusfNVWV9V/JS6I2IiACIiACIiACIiACJBDEqEKomoMKcWoxqsz6Dx1VJv3DcTUrlY4q1hCjGgjVZIxqwVH1QrXIUVV5KtLUJAIiIAIiIAIiIAIiUAEBE6ro9o+GULUY1cBRDWJUYZJStAYStSBUeW4rRxU6qjk4qbVRHVV0/SN2NR+ro5rD6FQvKka1gpdETURABERABERABERABEhgbcSo5jEqlReqOdRRxYbIUa1C338+Vke1KqijihhVdP17R5UpVDl08dcZoypHVXedCIiACIiACIiACIhAhQTijmo9Y1QZjxpUUmXilC/4b7GrcE9tH+JSWaqqBus5LL8ooVrhy6JmIiACIiACIiACIiACa/eFo2pd/8z6R2Y/s//5Dy4rR6Gig8ohVIPRqdChz399h99lyVTeUaVkRT9/EArAJCsmVjGpqhYhAJZMNR1aVslUut1EQAREQAREQAREQAQqJ1BwVMPyVIkYVQpWCtWiGNW7qEytq5+RASZUUS81iFENhCosVGjUmFBVjGrlr4paioAIiIAIiIAIiIAIRDGq7eCgWtd/NTL8UTeVWf8Wj2oxqoFQtfJUQR1VCNXMGFXqVwrYdB1VOaq610RABERABERABERABOpHIO6oFseo+q7/mFDF6XP9ynT9M0aV3f1ZXf+KUa3fi6PWIiACIiACIiACItCWCfgY1chRDbv+I0e1VNd/ZsF/i08txKg6xKgGBf/lqLblm0zPXQREQAREQAREQAQaQiDuqNoQqomC/0GMKp1WplEFqVTmqN6dRwkrJEshnYrb6aJaTCpqqTJmlQK1CoJ1OgQqYldrkEiFFdRR3RvrmkRABERABERABERABESgbgJr97sUGpMjUyFGFSNQ5dohqaoW4hOCFZGq0KjI+EfMKoJWMcesClv7Dr87jFFl2Cq3+zqq3MyfZIzqdCtPNU3lqep+PdRCBERABERABERABEQgJBB0/bd3WV3/hfJUPkaVRaogXvtBqFKcWjyqd1ThnOZR8T9yVH3Wf+SoQqhqZCrdeCIgAiIgAiIgAiIgAhUS4MhULte+4Kgi6z9HB9U7qsj6p9MaOapwVgOhCqlKUcrd5rXCReWQqqWTqeSoGir9EgEREAEREAEREAERqIhAOUfVylMlkqmgVyNHNReK9NDgdAAAQABJREFUUnsYBAVYgX/EqEKsWta/d1QhYDkyFQv+K0a1otdEjURABERABERABERABEDAYlTDkal8HVVzVKM6qn5UqsA6ZThAEKMKN9U7qgwDyMUc1ZIxqur6100nAiIgAiIgAiIgAiJQIQF2/eerGhSjyg7/YBBV3/Wfz9NRxSPDQaV4zVu2fy0c1WlyVCt8QdRMBERABERABERABEQgIFBwVNszpR//kfXPwFNUAmB4ag7buJ1pVNSjGAKAMar3WDKVd1S9UK2FUGXPf3HBfwnVALd+i4AIiIAIiIAIiIAIVEqAQrWUo+qFah5hACZecdIwRhVCFSqWDmowUcHCTUX91MBRRQUAxrDWsH4qY1SnoeZVjXvhqb0qvS61EwEREAEREAEREAERaOME1uk3GkIVdVThoAYxqnBUKUItRhU+KrL/8+amYhsmOqyIUb2HGVMZMaqBo1oco0qhqmSqNn6v6emLgAiIgAiIgAiIQL0IlHNUWeO/CsLUO6rs1A/rqAZd/4xDDSbqVg6X6mNUsUwZCxfVO6rK+q/X66LGIiACIiACIiACItDmCQQxqqij6h3VcAhV76gGMap+CNV413/MUaW7SkGqGNU2fz8JgAiIgAiIgAiIgAg0GoFyjmqZGNV7WY/KaqYyIoDOag4jUNXWxrr+UUe1tqYGzaa7YAjV6YpRbbSXTScSAREQAREQAREQgdZPwMeocgjVPDP9MTIVglYRi4oEKnb9V6HrHyNTMYnKuv6DOqoQqliFLMXmUKjGHNVkjGpBqL6oZKrWf0fpGYqACIiACIiACIhAIxFYO0ymolBlSaocuv4tEtUL1ewY1QyhmnZUwyoAclQb6ZXSaURABERABERABESgjREoclTTQjXtqNJb7Tf8XqujWlky1fTYEKoqT9XG7i89XREQAREQAREQARFoMAE6qi4qTxU4qizqXzaZqv96EKro888jJtX6/hkVwGL/rKPKS2EFAP5jHVXnhSrqqD65Z4MvVAeKgAiIgAiIgAiIgAi0LQLr9L/MRGk1xGrQ9R/WUYWzGiRTBaEAFrAKNFZHlY4qI1PrilHlAADq+m9bN5SerQiIgAiIgAiIgAg0FoE6u/6zYlT7s+ufjipHpmLKFX3UyFHFOor7RyNTeUcVFQBeeEqOamO9cDqPCIiACIiACIiACLR2Auv0g6MK97S6qj2eKrL7q72jigoAqEDF7H8mVyHLisI0cFT7D7/PYlS9o0p3NauOauCoTkOMKgr/Q7xKqLb220nPTwREQAREQAREQAQajwCFKodQzcr6L1lHtf96EKpQsXnI1WAKhGrRyFRwUZ2LCVXFqDbeK6cziYAIiIAIiIAIiEArJ2AxqvVJpmId1X4QqnRRvaPKxKlcRh1VK/gPoTod+3JIrJKj2srvJj09ERABERABERABEWhEAuaoors/KvifLk+VGaNKRxXilP+CqQJHVUK1EV82nUoEREAEREAEREAEWj8Bi1GFUK2OFfyvoDxVhTGqHELVd/1LqLb+u0nPUAREQAREQAREQAQakUDcUU2PTFUmRvX+Qta/d1WZ9W/d/3RXGRSAf1ZH1ceoso7q7o146TqVCIiACIiACIiACIhAayawTv8rgqz/yFFF1j+L+CPbP6qjyox/m7AHy4hRvT8WoxoEABRiVLHOslWIYC2OUd0jPJFmIiACIiACIiACIiACIlCewDr9Lnf5imJUmT3FoACI1f4QquaYmpsaxqnCTQ2y/r2jClc1nvVvXf8SquVfDu0VAREQAREQAREQARHwBChUXUUxqjyCXmtMqAZZ/wWhWmvd/wWh6h1Vq6MqoeqZay4CIiACIiACIiACIlABgbijWj5GlSeLC9VwZKqc1VPFLojUWrqq/FfLrn+Ur1KMagUvgZqIgAiIgAiIgAiIgAhkEfAxqoXyVO3QDIIUZao4NmoVYlXzjEs1XYrtilHNwqhtIiACIiACIiACIiACjU0g7qjmkVBVVbKOaiJG9YFwZKraUMHSUa0JHVUm/XNEKu+oTi8Moaqs/8Z+/XQ+ERABERABERABEWi1BJKOavtQqNJRZfY/HdWq0FHNIVeKjip++q8HoUohih9sDuCYUMUWDqsahgCw6z/nQqFqMaoqT9Vq7yQ9MREQAREQAREQARFoZALr9LsizPqvhiva3rr8IU8hSH15KgrVIAzAQgKgPHMDNnjAClCxXiqdU5sskYquakGoso5qPj89cFohXl94YrdGvnydTgREQAREQAREQAREoLUSWGfAlSZKqyFGTaiiAgCkKJa9UOX2Qh1VLkeOKl1VOqqUqsk6qhld/3JUW+s9pOclAiIgAiIgAiIgAk1CgI4qy1O1gzDNw1GtK0aVIjZwVOmcmkQNHVXEpTIYIHJUGRxQG3NUsayRqZrkNdRJRUAEREAEREAERKBVEmCMKuNRI0eV2f50UL2jijAAZwlWfPqMWo0JVe+oGhkIVcjUQowqhGotxKnzXf8SqoZJv0RABERABERABERABCojECRTBY5qFKPK7v2YUM2HpapiQvVBRqRChMZcVYtRjTmqFK0YmaoQowpHVTGqlb0qaiUCIiACIiACIiACIuCCGNWYo1rNxCk6qlXI+Id7au4qY1QDNxUbEKO6wYNI7qef6mNUMUeRf++o5pE4xUSrWpapgqNqI1OZo6pkKt1zIiACIiACIiACIiAClRFYp/+V6NpPxaiao0pXlZIVWf9VWMY/qlL7NwBC1WJR6ar6HwjVZIwq1hm3muj6l1Ct7GVRKxEQAREQAREQAREQAQrV7BjV0FG1GNWYo0qp6oWqd1RNrMYcVaujGnNUbWhVOaq620RABERABERABERABOpBIO6oJmNUC0LVO6q++z8QqnwQiNFgwtxCVlkzlQtBBYAgRpW1VZn9X4sY1V3C9pqJgAiIgAiIgAiIgAiIQHkC6wy42uJQqzF8qsNPrihGldt5DrqqmBgWoBjVgIV+i4AIiIAIiIAIiIAINB2BuKMa1VGtO0b1oTBG1TuqcFEtRtWPTIX4VLqqFqPKbVxmHdVdm+6Z6MwiIAIiIAIiIAIiIAKtisA6/a+CSVqNOqqhoxrVUWXXP5Oo4KRW0VItxKmi6z8QqtkxqgwDCIRqLcRrso6qhGqrunv0ZERABERABERABESgCQlQqPqsf+v6Z3F/1FC1jP9QqGbEqD6Uz+cgU2tRCIBzxKXmWJwqzPzPU6Dm4KROZyUAxK2yTBXmz4+XUG3C11KnFgEREAEREAEREIFWRWDdgRCqDnVUKVAxr2qHeR5CFS6qFadCaao83FQKV4jTYHt/OKql66jSTaWTCqEaOqqFOqoSqq3q7tGTEQEREAEREAEREIEmJBB3VPPo/q+KOaos9s9/3lGN1VGFUIV+NSeVjir+WcF/dvlzRCoKVAehWhM6qhCtsFfd809IqDbha6lTi4AIiIAIiIAIiECrIrDuADiqEKiRo4qsf+dCR9ULVYYAeEeVI1MpRrVV3QN6MiIgAiIgAiIgAiLQLAnEHdWKY1QHbvBwvpYJVuzih4dqP/RY2d1v3f6hs1rDddZQ5QhVNYhR3blZQtBFiYAIiIAIiIAIiIAIND8C6w68Bm5pNRL7mUCVrqNKJ5XJVRSl4Q/d1QEUql6g+nmYSBUJVYpTbosPoaqC/83vDtAViYAIiIAIiIAIiEAzJWAF/6vQ9W+CFEI1szxVoTQVBWvOHFUvUP28hFCNHFWLUd2lmWLQZYmACIiACIiACIiACDQ3AutyZCoI1chRrY9QtSSqmFBFgSo4qMz45zzI+qejal3/EqrN7bXX9YiACIiACIiACIhAsyZAoco6qnRUrevfsv7Z5V8o+O+z/n33f+CoRjGqfH4Upz5GFTGr7PanaLUYVcanBmJVMarN+l7QxYmACIiACIiACIhAsyJQiFFFtz/FKrL+bTQqLFcxw99CAihK2f2Pyceo0k31jqrN0fXvHdV4HVUfoxqUp1LXf0BRv0VABERABERABERABOoiEHdUmfUf1FENHNWSdVQHbvBIiWQqZvnTUQ26/plMFcSowlHF6FTPP6Gs/7peEO0XAREQAREQAREQAREICKw7AFn/6O6vYsY/fzASVeCiFrr+sRONCwlV6PoPhKp3VKFM0ftfcFS9ULUhVa3bX0JVN5wIiIAIiIAIiIAIiED9CFCoOgjV6phQRf8/xGpBqGbEqEKo+hhVjEzF+FSKVbqmUXkqH6PqKFLxg/XnH9+pflen1iIgAiIgAiIgAiIgAm2WwLqDrrWY1MhR9TGqcFb5j26rT6KyeRCj+ghTp+xfzs9jjmpxjOp0OK7q+m+zd5meuAiIgAiIgAi0MQLj7rrPjbv7PnvWm47Y0G26yYZtjEDjPN24oxrEqKKLP3RUy8eoeifVzy0ulTGpYXkqh2z/GoYDhI6qRqZqnFdMZxEBERABERABEWj2BE45/Rw3efIUu86uXbu4o444uNlfc3O8wGTWP2JUq+GiOrio3lGFg8pM/8hVZSUAxag2x5dS1yQCIiACIiACItBcCEioNs4rEXdUfTKVd1Sr2M2P7v/iGNUNH83n4aTmEQAQdf3DSaWbym5/6/qHo1oLRzUoT4WufziqzylGtXFeNZ1FBERABERABESgWROQUG2cl6cHYlQpTH2MahUcVQdHld3+PqEqb4KVipR1VfEzYAMIVR+b6ucVxagqmapxXjadRQSaJ4E//vjTffrZ5659+3au47LLNM+L1FWJgAiIwEwgIKHaOJDXHQChGmb9Vx6jSkfVC1Q/r0CoPje+eQjVn3/+xf3x5x+uGpljC/zjH2VJssTWt999ByVf5RZccIGybbVTBFoLgd9//8P98usviaczx+xzuLnnnsu+rSZ2xFY++vgTd+zxp7r555vPXXTBmbE9WhQBERCBtkVAQrVxXu8eAwOhGjmqiE31Xf+lk6kgVNGpb/9otFZcR7WZCNWLLrncvfjSK/aBe/SRh7ounZcrSfPHH39y+x5wqJtnnrndpRedU7KddohAayLw+Pin3HVjbip6Su3btXPz/2N+123N1dzwoYPd/PPPl2gjoZrAoRUREIE2TEBCtXFe/HVDoVq/Oqot3FH1QpUIF19sUXfKycc6fgBnTRKqWVS0rbUT8EJ1rrnmdMt16mhP97fffnc//PCD+9+339l6O7xnjjjsQLdCl+UjHBKqEQotiIAItHECEqqNcwPMkKNqTmrMUWVR/6g8FZKnioZQbWaO6myzzeb++usvt9GG67ktNx+RSVRCNROLNrZyAl6orrRiVzfq8AMTz/aTTz9z114/1n344cduvvnmdWeceoKbc86/WxsJ1QQqrYiACLRhAhKqjfPi01GtewjVWHkqJlQN2vAxjEyFLn9EqkZiNcz2j4Sqr6Pqh1C1rP+RjXPVM3gW76husdkId/uddyNWtcqddPzRbqmllig6c32EKuNZp0+vcbPN1r7oPHVtoGBu3759yfi/adOm2T66WJVOrMrw559/uTnmmL3SQ9ROBIxAOaHKBj/99LM78JAj7YveIQft51ZbdRU7rpRQrUEFEE58r9Vn+vPPP+19UcWYpHpOwf3/J+7/Oep15PTpHEnPlexlqdfJ1FgERKDNEpBQbZyXvseg66B/mOXfLsj893VUkTtk5akwL66jCqHasGSqkY1z1TN4Fi9UTzhulHvwoUctXnXZZZZ2XE9/IJYTqvwgnPzeVPfMhGfd1Pc/dN99972rqalx8847j1ux6wpui802dgsvvFDiaj/7/At33gWXur69e7qNN1rP3XX3/W7Sq6+5zz//j5vz7393HTst69YbNtitvFJXfA/Iu/sfeMS98urrji4WhfBCCy3oNlx/mOvbp2dJUfvypFfdI4+OxzGfuz/++MOSwHg9226zuZtrzjkT16MVEcgiUJdQ5THHn3i6++DDj9yWW2ziNtpguJ3GC9WFkHh43jmn2X340suvuo8/+RTvjelugQUWcD17rG33MHs0sqYvv/ra3Xb7XXbP8z3FL3BLLLG4W7t7N3tvsPRIejr8yOPcQgsu6Cia33zrHffQw4+5Dz/6xP3222+O4Qu8/7fZajN7/6SP5TrfW/fe/5CbNAnvxS/+gy15t+iii7h11+luzy39dyHrHNomAiIgAnECEqpxGg1f7jHwOsv6r1cylTmqvsvfz/GHvq6u/+fGj2z4lTbikV6oHjXqYMSoLuYOG3Ws+7//+80+yNZfb2jikcoJVR7DRCu6nRSQHRZfzP366//ZhzdPwgSsM08/MSEO/Qc54/r+gaSUF1+a5Dp0WNz9Da4PxS7F6eyzz27drU88+YybMPF5txg+MNl2ytQP7LF47h2239oNGTyAi4npxptucw8/8ri5QZ2W6+jmnmsux8fkBz4zsUcdcZDF5SYO0ooIpAjUR6j+a7ut3NAhA+0M/v5eAvf08st3ck89PdG+rC2M9wf38T3DiV/EGN+anni/M6yAPQwMK1hyiQ6OVTr+8+VX6K2Y7rqu0MUdsP+eifcUz7Hzbvvae2fbrTd3N4y91d57HRZf3P33f/9z//vft/Yw/JJ29pknm3CNPy7F7PkXjnbvYgQZH5PL9+H7H3xkQnd5vI+OHHWIHNY4NC2LgAjUSUBCtU5EFTWgUGXXf+SoooeNDitdVF/wn6NUYUP0E3T9Q5byX32y/pubUD304P3dqv9cGY7oc+6Kq65Dl/1s7jQkVi2yyMIRvHJClY2efe4Ft/RSS8Lx6RAd8y2STU469SwTh5ttspHbZMQG0T7/Qc4NzJg++MB93TJLL2X7KSYvv/Ja+8CkazT77LO5/fbZw66RDfghf9Mtt7unn3nWygSxCkHcXXrttTfdOedfbIKUIqBDh8XsvPyAv+a6G+15lhII1lC/RCAkUJdQ/e33391+BxyG0JI/HStn+ISq+P1NYbj3Xru6f66ykp2V9+Frr7/pLhl9lYlO//7z0Hn/H3L4MbaPgnM4ehb8RLFJMckarYMG9nMjd9jW77I5hSrFLd8P226zhRsG4ezfG3R9L7viWvf11984fhGlsxqfxt58uzmwK3aFCN5vryjeluENZ517ofvkk8/QOzLCekDix2lZBESgbREYd9d9bvKUqRU/aT98qj+Aw6hWOnXt0tltusmGlTZv1e3ijqq5qhSlFgpQEKpFI1MFMapQrog7DSbEn1nI6nQkU3EBiVT8h66+Wi7np+GnFiNT7dgsYHpH9d/774UyO6vbNZ1+1vnu7bffNcfmSLiO/kOuLqFa6gldf8PN7rHHn7Tuyv322T1qFv8g33nk9m5A/z7RPi5MfPZ5+1Dl8oYbDHNbbbEpF6Pps8++cEcec6Kts04lXVJOdIBGHX2i+wLdlmlxzP2si3nAQYfDIfrdnXDsKNcJIQaaRKAUgXJClQLucnyxe/PNt93i6EU45cSjrXue54rf39tAbK4/fEjRQ4y+7Gr37PMvFok/ikne/+uus5bbZ6/dio6j0Dz0iGPtvXn6qccnega8UF19tX/al7/0wXR2r7pmjEsnh333PcTxoUe7aRDRccHtj38PoT0nn3a2xXlfMfqCotAg305zERCB1k9g+x0Ln+Uz49neeP0VM+Nhmv1j9Bg0xv7u53Lt4aDCWa1ux3QpE6tVHIUKsatmpmIoVZvYZmAriVE9YL893Vrd1rDnRcfm8COPN1dm550gIPsFArKhQpVxohdcdJnVaD3mqMOiGyH+QT764nPNGY12YuGHH380p4rbjjvmCMdux/S0z/6HWDLL8cceEZUOYsmgAw8eZS/m+YgNXGCB4oEMTjrlLIQPvO9222VHi3FNn1frIuAJeKHKWNN1113bKnj8/Msv7rvvf3B0CRiL/fe//82+9CyGEm9+it/fF19wlnXf+31+fs+9D1oSI+OseS/6af8DD3ff4/xHHnEwYkqznYcz8IXyLXyh3PFf27jBg/r7Q63rn47qPnBwGVeanqa+/4E78eQzLQzh3LNOiXb73hT2opyDsID0xOe50677WAzruWef4hZeKBlznm6vdREQgdZLQEJ11ry2cUfVuv9jjmrJgv+DNny8RNZ/TeioMl4VTir+yAeOKrJokf3/3OMjZ82zTD2qd1TjQpVNHkJs51jEePIDmCV32DVfiVD98KOPEZf6sWOXPz9omcD0ww8/OiZOdV5+OXfs0cVCldn71119aerKnDk7O+2yt22/8LwzLDY13eiwUce5LxGzF3eA3n5nsjv9zPMsfGGlFVdIH2LrTGjh88lyajMP0MY2S8AL1SwArCIxsH9ftx7cUiYOxicvVDnqG+9v3zMRb+PfZz17rOP22mNn2/XXX9PcLrsHcaYXnHt65hctNvQ9FUOHDHD/2m7r6LTeUeWXwqwBPJiMePSxJ9v7ie8rP7HqB4Uzv9gttWRx1Q+2ozBm2MJhhxwQhTH44zUXARFoOwTU9T9rXuseg67HZwnjUr2jCsfUxWJULesfDqs5qnRarTwVhGrQuY/G6OrnD5Kp+I9d/LBfMIdIrWW3P38gVGshVMePnDXPMvWopYQqu8+ZyUzhueYaq7kDD9jb0UXae9+D3TxzY2Sqi5MjU1H4XX3NDZadzIf4O7L2F0DSE+cUq4ynY0LJcUcfHl2B/yDnB/wlF54dbfcL7IL0QvWK0efbufw+P88Sqr5rk8KgrgxlJmFthzg+TSJQioAXqoy93hQx1ryv5plnHlSQ+IeFm5S6x+q6v/l4WUKVSU8HHXKUXc61V10ShRKkr+/uex5wd4y7x0J2GLrjJy9Uz0LyYtzh9ftLCdXRl19jceaVvG/233cP+7vgz6m5CIiACJQjoGSqcnQq39dj4PVR1r91/SOxqu4Y1Y1CR7UWApX1VClUKU5DsWrLdFRRU7SW87CW6nOPjaz8ypqwZSmhyodkaRo6L+zy84lMu+6xX5FQZVf7scef4n755VfrRt8Q5XkWjSVhTXrlNUv+KOWolhoLvaFClUkq55x3scUMnnnaCU1IT6duCwS8UE3HdNb13L1QLXV/8/gsoco6q7vtub+F3pTqSeCxN4y9BSWvnihKqPJClVn98fchj+FUSqgyOfHBhx5zgwb0dSN33C5orN8iIAIi0AgEJFQbASJO0WMwHFU4qLkq1lFljCp+8hCrCAGI6qjSTYWhgl82R4zq4/Aeg390VPkvF3NUA1e14KjWQqi6FuCoeqR0bOjc0PU8/ZTj3V77HlQkVFkCiqWgOLwkY0XTExOp2E1ZylEt9UHeUKHKRBNmTLPL9ZorL7Z5+pq0LgKVEpjZQpXXdcJJp1tJqGNQRaBLbFjW+DXzyxi/lG2/7ZZu2NBB0a6GCtUnnnrGXXPtjZZEyXJ1mkRABESgsQhIqDYOybijyrJUVTFHtXSMKh1Ve3z+Dh1VuKuMS41GpjKH1Wf9s+u/ptll/adjVD1SxqMdecxJFgfKhI/nnn/J6pzGu/754cYPud691nV77LaTPzSae9d2ZglVOlLM6mcMalY1gejCtCACFRCYFULVu6V9evdwu+86sugqGffN0bD4/uTgHJ06Lhu1aahQZQ/KkaiWwa7/U1GajvVfNYmACIhAYxCQUG0MinBUmfUP9zSooxo4qxSohTqqdFfhpNJNtR+0HWRCteComliNOarW9Z8Vo/r4yMa56hk8ixeRpYQqT/8+iu+feMqZCFugEEfx/lSM6n33P+xuvX2cFR5nmSiOnuOneImpmSVU+dis6cqYO9av3Gfv3dwqK6/oL8nm/IBnUXNf1zKxUysiECMwK4QqewWOh6vKUmpMslpn7bWiK2Ld1osvucJGneq+1pqO8aLxqaFCledg2SrGeLOeMUvJxesocz/rF7PsWymXl200iYAIiECagIRqmkjD1plM5eCisoZqPWJUx+fzEK7s4o+6/iHoggz/MKGKqVWoo2pJVRajCkf1sR0adpWNfFQlQpUPOebGW9yjjz1hj54WqixOznJWTJpidYA1V1/VxOoHSMT6+ONP3WabbuRuvW3cTOv694guvewqc4C5TseJo15x+vGnn9wHH3xoBdqvv+Yy26ZfIlCKwKwQqrwWfkE8DdUrWGqK2fscTOMXjPbGeqYs3UYROQqDWSyIslnxaUaEKhMmWTGDNYo56AdLwvFx/vzjT5Tj+t7CEbqu0DlzJK34NWhZBERABOIEJFTjNBq+3HPwDaF7ivqp7PpHHVUoVywHPxSvefSK8R+HobLtAzeCUMUq/0VCNeaoloxRbWYF/8s5qkT6Bz6oOIY4RWlaqHI/Pzw54hPHJufE7kN+wO2607/cCvhg+zfqmlLEZmX9N3aMql1A+OuFF192LKPx9Tf/tfqPfh8/3LuvtYbbdmtl/HsmmmcTmFVClVfzzrvvWW/FRx99El3c3HPP5daGk8pBBDjEcHqaEaHKczF58u57HzBnlSEG8WnZZZZGzdZ+rk/vnvHNWhYBERCBsgQkVMviqXgnu/69o1qPGNX6C1UrT9VMhGrFdCpsyLjQn37+2S2y8MI2gk2FhzV5s2nTprmv0J3KUkIU2vPMM3eTP6YeQAQaiwCdTtYl5pe6dL3WxnqMrPP89ttv7pv//s/i0udBQuXf//a3rGbaJgIiIAJlCUiolsVT8c6eDRWq6OCPHNXKY1R3rPjC1FAEREAEREAEREAEWioBCdXGeeXijmrFMaqD0fVfy+SqMPcftacYsBrGo3KZMhY/iFFlFYB8fprFrzaXGNXGQaeziIAIiIAIiIAIiEA2AQnVbC713coY1SAelSNTIS4VMaoY2iiMW2WcKgcAoCjFNk5sM6gBMaqtues/IKPfIiACIiACIiACIhAQkFBtnDuhQV3/gzd6wjxT6/KHd2pzJFPRRWXmv3dXWTs1qAQAZ5UF/x/foXGuWmcRAREQAREQAREQgWZMgEnN4+6+z65w0xEbuk032bAZX23zvbSeg+CoojxVoY4qlwMX1UIB6KQiFwdWavST80LVZ/17oQqZat3/XqjWQqiyPBWHUJVQbb43ga5MBERABERABERABJojAQpVn/WfjFFFAAAEK8MA8hwQoEioUrzCRcWAq+agUqyag4rRqWCjoqYVRCsKzNdind3+tQ6O6qNyVJvjTaBrEgEREAEREAEREIHmSKDnEDiqDoK0CgX/OW+HGNU8XVRKVG6Hu0qRyjhVFvmnaB2Ern+6qfxXXEeVDirFK7r9Q0e1lgX/1fXfHF9/XZMIiIAIiIAIiIAINFsCcUc1WUeVxf0xAEDMUbWC/1CmQde/d1L93Gf9e0eVTiqKaEeOKsSqsv6b7X2gCxMBERABERABERCBZkcgyPqPOarVWIaTGjmqYbxq5KhylCrFqDa711EXJAIiIAIiIAIiIAKtjkDcUa08RnXjJ1FHtRCbyvhUq52KWgBR1r85qohNZX0Ai1GdphjVVnf76AmJgAiIgAiIgAiIQNMRCGJUEZfKGNWojmos6x/bsBMXEGb901EdBKFaWYwqYlMpXiFUWfRfXf9N90LqzCIgAiIgAiIgAiLQ2giw6x8ZVMiRgliFIOUcVf+xXC5GlY4qXdT4T2Yd1ZijKqHa2u4dPR8REAEREAEREAERaFICQYxqzFE1wRpzVJFMVVxHNRSqPuvfBCuEanEd1cBRta5/CdUmfSF1chEQAREQAREQARFobQTijqp1/ccc1dJ1VNn1D8uVxfwZEcARqRiyamWo6LXix7bW/IVl7K2dhjY17tlHt29t/PR8REAEREAEREAEREAEmohAzyE3WpZ/VVV76+6vqp4Nj8Ruf9RLZSgAwgJYPtUK/3MPwwIUo9pEr4ZOKwIiIAIiIAIiIAIiEBGIO6r1iFF9qkHJVM8+9q/ogbUgAiIgAiIgAiIgAiIgAuUIBDGq7eubTPWUJVPVP0ZVQrXci6F9IiACIiACIiACIiACBQKBoxoI1YpjVIdsDKGaUUfVaqYibhWBqRaTmq+JZf27aYhRlVAtoNeSCIiACIiACIiACIhAOQKso1rlEJ+KJKp0HVUbQpU1VPljWVMMVuXIVBSq8dJUXK6oPJWEarkXQ/tEQAREQAREQAREQAQKBHzXfyRUKylPFTiqOIll9/NkyPJndj/cVFYCCBxVSNmaadgGdxVZ/7VuurL+C9y1JAIiIAIiIAIiIAIiUAcBZv1XuVgd1Wq4q6ydGmX9BzVVC44qqgGYUIWLWt8YVSVT1fFqaLcIiIAIiIAIiIAIiEBEwDuqHJEqHaNqXf8QrfkqiFPf9c+lISOeRowqzoHufiugyq5/Oqq1cFRRLzVyVKfTSYWziiFUzVF9ZLvogbUgAiIgAiIgAiIgAiIgAuUI9Bw61lXl4ahW+xhVOKp5jkbFWqrVmMFRpUhFbGowh2gdvPHTli7lHVWbx0amYpF/9PtDuAYjUwVzJFM9poL/5V4M7RMBERABERABERABESgQ6DkYBf9z9SxPZY5q6KJGjiqFqqVYhY4q41WZ9e8dVQyhqpGpCuC1JAIiIAIiIAIiIAIiUJ5AEKMKF9U7qkymcnBRvaMaxqtGjmrU9W8Rqnmswj3lT8xRta7/mKNqXf8SquVfCe0VAREQAREQAREQARFIELAhVENHtf4xqplZ/6wAwOJVGVn/ilFNwNeKCIiACIiACIiACIhAaQIWo2pZ/+j+Z43Ukln/rKWKidUABiOZKsj5DxzVimNUH1WMakBRv0VABERABERABERABOoiEHdUcxChzP6HWkVPf5hMFcv6pyq1f0NGPGOeqXX5l+n6D7r8mfXPeqqso6qs/7peEO0XAREQAREQAREQAREICPQcgqx/dP1nFfz35amgXtE4zPqnVPVC1Wf91x2jKqGqG04EREAEREAEREAERKB+BChUfdZ/PWJUn8nnIVzz8FWZTGWCFcEANTYqFUenYoIV8v0xMhXb1MJRzWNkqomKUa3fq6PWIiACIiACIiACItCGCfRCHdWci5WnQowqUv6t658hANX4yTMMwBQpfgcxqhCqXqD6eSzrv7iOKgWruv7b8H2mpy4CIiACIiACIiAC9SYQd1TrFaMaFKWKOaq1HJOKNVRDR9U7qdEcjqpiVOv9AukAERABERABERABEWirBHrFuv4DoQpHla4pR6Kio4p/edZU9Y4q3VbFqLbV20XPWwREQAREQAREQARmHoG4o1pxjOrQERPytVUs8o+fHH58TCq6//PeUc1hCNXpGEIVLmswQtU0xajOvNdVjyQCIiACIiACIiACLZ4AY1Sr3GwwT1GSCu5pVTuMTJUPR6biumX8I+ufDisTqOiuDoZQrTxGFYK1FoLVRqZSeaoWf8foCYiACIiACIiACIjATCIQOKqzQZCydiqFaQV1VM1R9U6qnzMWFT+RowontbZGjupMeh31MCIgAiIgAiIgAiLQ6ggUOarVcFThpJpzSkcV8aqMWY0cVVYAMKHqs/0xh9eKMIBaStNYMpV3UtH1D0e1Fo6qkqla3f2jJyQCIiACIiACIiACTUYgSKaqzFGFWsV1UKhughhVLsNBDSYK1DzEKEUpXVWsw2mtrfnLloORqWoQo7pN2F4zERABERABERABERABEShPoNfQm+GawkVFl79l/VcjXtViUZn5jyFVEQ5gbioiWW1iRYAhEKpZMarmqNaG5anor1psqp/P+mSqTz/9tDwN7RUBERABERABERABEYgILL300tHyrFiwgv+5lKOKLv8ckqaC8lRVKE8FcYp/efttjupERqPiemM/vuB/hlCNuv4f2XZWPMfoMSVUIxRaEAEREAEREAEREIE6Ccx6oXoTXNP2oaMaJFNFMapMrqKTapn/Qbd/2PUfCFUbOtWLVR+j2oyFap2vhhqIgAiIgAiIgAiIgAg0GwK9ht6Enn0/hGqY9R86qlYFAELVO6oUqQWh6rP9vVCFx2pZ/16oso4qs/4tbjVMpprFjmqzoa4LEQEREAEREAEREAERqJMAhWrCUWXWv6+jSkfVZ/2HIpXxqohRndjAGNVZ2/VfJw01EAEREAEREAEREAERaDYEyjmqFcao8rkgyz+KUQ2z/rGttnZazFGdrqz/ZvOy60JEQAREQAREQAREoPkTKGT9I06VWf5VmIdxqbYexaiGWf9MqBoKR5XJVIpRbf4vsK5QBERABERABERABFoqgXKOapkY1WfzecSo5hEAwGIAJlghXWvwg8BUxKpiew7rNdNQGADxqRa3Ot1NeGTrlspJ1y0CIiACIiACIiACIjCTCfQeegs0Zbto6NTq6vbQlihH5ctTwWXNs3aqKVL8DmJUIVTRtc/iVJFQhRhFBVUTqhSwLqqj6oUq66iq4P9Mfn31cCIgAiIgAiIgAiLQYgmw679U1n8QowolWoW6ql6o4pmi67+0UM2HWf85CNUaFPwvOKrT4KhKqLbYO0UXLgIiIAIiIAIiIAIzmUDvUKgGI1NVu2qMUOUSBf8DoRqVpsJeE6pIlYocVSv8X8ZRpXitzctRncmvrR5OBERABERABERABFo0gXKOahCjWnBUA7GK38PgqNZWsZsfP6ytythUCNcaZP5zOc95FaTsdGT9O9RSraFQVYxqi75TdPEiIAIiIAIiIAIiMJMJRDGqrJ8KJ7WqHWJUaxmjih+rAoAYVWT+c9kcVMSuoo5q6a5/JlMpRnUmv4p6OBEQAREQAREQARFohQTKOaolY1SHbfocfFO6pyDiR6jCCFTM9reRqHwyFUemcnBVa9AaXf/K+m+Fd5CekgiIgAiIgAiIgAg0EQE6qjYyVTUSpnz2P0amYtZ/DklUzPenYMVOXAF/8HvYJoFQNZ1qapVhAMVZ/0EyFYQqBwOQUDV4+iUCIiACIiACIiACIlAZgaDrvz3KU8WEaphMVTpGlY6qd1IpVM1BpRhlfGrY9Z+Dw0pHFQI1cFQZo7pVZVelViIgAiIgAiIgAiIgAm2eQO+ht8JRRXyqd1QRq+roqLJeKh1VxqZydCrvqHL7UAjVRB1VrOXQ9e/rqFrB/6g81TQIVghYOapt/mYTABEQAREQAREQARGoD4HIUYVQdRCsUXkqClMIVUhWFPwPhCuHobIAgCBGlR3/4Q8dVYtaDTL+81iOF/wvZP3LUa3Pi6O2IiACIiACIiACItCWCRQcVbiqEKRVvo4qR6NC5j//YaHgqFKs+mQqylTo2KDrP+ao+qz/KEZVyVRt+R7TcxcBERABERABERCBBhGIO6pRMhV9VN/1TyUaOqpUpZwgVJ9HjGqY9e+z/zlkKpzVIEYV+yxGlfGqjFH1dVTlqDboVdJBIiACIiACIiACItAGCSQd1Xbo7UcIgMWo0lFljCrFKcMCCIfOKv4PhVAtxKgy/hQbY44qk6qCIVRrcDLGqFKwKpmqDd5fesoiIAIiIAIiIAIi0GACFKrmpDKJymJUIUrNUYUoTcSoQnJCqFKvBo4qnVSbQmeVdVTRJHJU6bBaBQA5qiEozURABERABERABERABOpBoMhRhTj1QjVZR5UnhXjFlPvpp58Qhsri/sFPLeukhj81cE/9z/Tp0920adMc53/99Zdbc8017QT6JQIiIAIiIAIiIAIiIAJ1EXjllVfcbLPN5tq1a+fat29v82p0//ufKiZUhT8Wt8rYVQnVurBqvwiIgAiIgAiIgAiIwIwSkFCdUYI6XgREQAREQAREQAREoEkISKg2CVadVAREQAREQAREQAREYEYJSKjOKEEdLwIiIAIiIAIiIAIi0CQEJFSbBKtOKgIiIAIiIAIiIAIiMKMEJFRnlKCOFwEREAEREAEREAERaBICEqpNglUnFQEREAEREAEREAERmFECEqozSlDHi4AIiIAIiIAIiIAINAkBCdUmwaqTioAIiIAIiIAIiIAIzCgBCdUZJajjRUAEREAEREAEREAEmoSAhGqTYNVJRUAEREAEREAEREAEZpSAhOqMEtTxIiACIiACItAGCYy76z43ecpUN3nyFNe1axfXtUtnt+kmG7ZBEoWnTCbj7r6vsCFjadMRG7Z5ThlYSm6SUC2JRjtEQAREQAREQASyCJxy+jkmUNP72rIIK8UkzYjrbZlTFo9y2yRUy9HRPhEQAREQAREQgQSBtCCjm0pX1U9tUYRNfm+KO+W0czyCiuZtkVNFYFKNJFRTQLQqAiIgAiIgAiKQTSAtUo8adbDrukIXl+7ybmsibPsdd4+AlXvuaU43Xn9FdJwWsglIqGZz0VYREAEREAEREIEYgVIi1TdJi7Bygs0f0xrm8edNd/moIw4u+7QqFbVlT9KGdkqotqEXW09VBERABERABBpCIC5SKcY2HbGBOanpc8VFG/d5xzXdriWup59bUz6HtiLyK2EooVoJJbURAREQAREQgTZKIC5SiaAuERUXdJU4jC0Fa9wJnRnXrLCAgHKbFKpfffW1++uvP92CCy7o5pxzzplxv7X4x5g2bZr78ssvXS6Xc0sttVTZ5/PXX3+5r776ylVXV7sllliibFvtbFkEJk+e7H799VfXocMSbvHFF8u8+O+++8699dbb7vsfvncLL7yw67hsx5JteYL//ve/7vfff888Fzc25H36888/ux9++KHkOeeaay63wAILJPb7+zaxMbbSrn1712HxxWNbgsXPP//c1dbWFm33Gzp06ODatWvnVxs0/+abb9wff/zhllxySVdVVVX2HLyeye+95/7840/XqVNHt9zyy7vZcO2VTH/++af7+uuv3TzzzOPmn3/+sof8hb8Jr736mvvyqy/tNerSubO93mUP0s4WRyAtUv0TqEusxo9rLYIr/pw8h6aatyaBP6OM2qRQHTJ0mHv99TfcxRdd6LbccosZZdgmjp8ydarr3buvic+vvvyi7HPmTTV8vQ3cfPPN66ZOea9sW+1sOQReffVVt/4GG7mamhp32GGHukMOPihx8RMmTHDnnHuee/75F1w+n0/sGzRooDvpxBNNOCV2YGWjjUe4F154Mb05Wr/g/PPcNttsHa1XsnDGGWfatZRqy/c93//xacLEiW6zzUr/PVgCgvPVVyfFDzEWi3dYsuj5xhtNevnFOr/cxdvHl8nx3PPOd2eddbaJ4cnvvl0ksH37Z597zp188qmO77/4RHF90kknug02WD++uWj5gw8+dDvttLPje32nnUa6M04/ragNN/zyyy/u/AsudNdfP8bxC4Gf+CV2iy02dyccf1zJa/RtNW8ZBOLCjMKJdVLjNUJLidV4BnxrFFxxZ7WxRHhTnLNl3GV1X6WEqoRq3XcJWkioVoSp1Tai0zZg4CD3/vsf2HNMC9VJkya59dYPCn137ry8W3311d3yyy3nvv32W3fHneNsTsH05JNP2BeYOKhevfu4qVPfdzyuffvZ4rts+fDDD3XDhg4t2l5uw2GHH+Guu+56c0Dny3AGhw0d4g4//LDEKe6551632+572PXRMU5Piy66iLv5prGJzXx+K660Cq67Pa6/c2KfX7n5phvdoosu6lcrnv/0089un333dY8++lh0TCmhOvamm9xBBx1ignnFFVd0a6/d3R6TXx4mTnzWekLuuOM217tXr+hc8YUHHnjQ/T97ZwIkRZWt4TtqCGqgow6ySrMJtMPmAoJKI4gssrc8R0dFBVRUUBEdFxZXxEGYcQMVWUdEQFlkEQREBXHegLIpAqIiCOrohOJE6JsxjMh3/oO3yMrOysqq6uzq6vpvRHdl3cx78+aXWVV/nnvOyaG33KrWctQnEqqw6uI6gKitUqWKObdtW9PyjJbm++++N3PmzlXhet5555oF81/Rfbr3weXcIuAVqTZAyD2tjyPyilW3SPVbn1sU/EcbhaiMok//0edeLYUqhWqoq5ZCNRSmCrvR/fc/YCY986zp3PkiFU5eoYoDxzYQLb179YoTKZiC79ixkzkgriMQh8NvHxbHqfD0pgbuAjt3bDcnnXRS3Lp03wy67nqzePESM3XK86Znzx6hupk+fYa56+57zIAB15pHxz4Sqo39XDRp3NisXftWqDZhNtq+fbu5dsAg8/nnn5vevXup2ASjREIVgvnyP15hBg8ebC4p7hu3izvv/JOZ+bcXTPPmzczqVSvj1sE6PuaRsebppyeq8OzatYt5+eVXEgpVNJ44cZLZsGGjGT9+nKlatWqsP4z1gg4Xmp9++sm88MJM06Vz59g6LuQWgUQi1R5FIrHqFakV0ZoKBlGIyij6tOcr118pVJMIVXzpHnvssSmfZ/hv/UZawdLiV+DTBr+8VH1k4R8I/7qwBfv45Zdf9EcobBu/7ewPMvxOS3PqHz+U8H+tXLmy324D62Dlw3jS8f/78ccfU2YfOJgKvPIf/9hgevfpa1q1OlsEZ0czduyjvlP/QQgeHvOIefLJp0y3bt3MzBnTYpvic4Cpc/hdHti/L07gxjZKY6Fv8SVm/fp3zZLFr6p1MUwX48dPMONkiv3uu+8ytw+7LUwT8+67fzd9+habonbtDCyWpVHgK9uq9Tni5/21uXHwDea++0abJoWnm4MHf0goVIP2C+vnueedr99Fe/Z8GuevOm3adHP3PfeqL/ksEZdwHxgxYlSgUA3a1w033GgWLlqkbiG4mWHJPQLJRKo9Ij+x6nYLqKgiFccfJCotP7/jD1oX1Kdlnq+v6QhV88MPPzgHDx50xFLifPfdd47czTsSEOGIE75z4MABZ9++fc6ePXuc3bt3Ox999JGzbds2R6YGxd2qfJSLOndxqp5S3Zk7d16JAYkgc+5/4EFH/DGdOgX1dLsGDRs58kPtvLN+fYntUXH++UWOWDN0nXxJO+Jz59Q+tUD/ZDrUef75KbF2r7223Ln0D5c59Rucpn03bdZC9yfCKbaNdwEMr7jyKuf3TZtrm0aNC7UPCWzxbqrvcQw3DxnqYDscJ/7q1mvgYCxiFXP++/PPvu2CKnfu2qX9VK9RK2gzXYdzjX2e1qhxiW1FmDjiC+jcdPMQ5+xW5zgiUnRbmT515EdOrxtvI7EuOWed3doRgaSrnnjiSadDx05OjZq1lXHnzl2dl16a422m78WSpG1fX7nSEZHvDBs23GnVuo3us+FpjR3xSXTe37Qpru1VV12tbWa9+GJcvfvNzp07dZtz2pzrfCefg4pa5EbNaX1OW6d27ToOjvmRR8Yqu8fGT0jpkEWoarvrrx8c1w7fH7hWmrdoGVef6Zt2RRdov5999lnorkSwaZsXZs0K3WbJkqXa5sYbbwrdJsyGq1e/4cyZMze2qf0uwndtquX77w/qGMEZvN1FbhKdUaNG63c46sWyqtuK64R7s9DL944Yqe3BkiX3CDw8drxzRf/r9A/Lycr8BYtj29t2eA3TNlnf5Xm9+1i944xinXcf+fYemgI6EloIuhL6EjoTehO6E/oT3434foMuhT79DYSqFPWHwiusIvYPFjL7B0serGV4hZXgrLPOKhc3BEHBVF27Xmw2bd6swQBN5GkbsPStW/eOjh/BAotfXVTCQlNQt74e/8iRI8zo0feZgoICUyCR8Rs2boxFM4/786PmSIn8xTRctWqniD9bY/Phhx/qlCegdO9+sZk+bWoJPrBO3HrrMI34xdRd3bp1zaeffmYwNVjp6KNlGu5p06vXId9ANIbls4cEvMg50kjcli1bmKOOPMrIidV1iMxdt+7tEvtJVlFaFlVYhZo1b2FgDUX2APglyg9pLAAEEd7r168zJ/72t7Ehbd6yxXTp0s20bt1K2c4Xn8eGDRtoBDR8GxHljDJo0EDzyJiHY+2wgGnKBx58yFzd/yo9r/CxxHk94YTfGrnwNTIcHJ948nFT3PfQlOmUKVON/OD6TpXazq2FsGPHDmbOS7NtdYV7BQfwGCXX9tChQ3R6Hy4AflP/iQ4e3wGdLuoij1jcYR4b92dz9dX9Y5vifJx3frtA1rGNU1iQmzrz7bffms8+3R16BuL6GwabRYteTWnaGgFFd/7pLrV8PvDA/SmMMLVN5cZXv4MSTf0H9YbvM3yvwa0C7hVBRW4C1RUgkY9qUFusg/vBG2+sUdcJuFCw5A4Ba+3DiP2sgYmOxGtZTaVtoj7Le32Q9TOKdeWdR9Tjo0XVc2sCa99bb73twPJnC4Q5rGywSMiUoq2OvVprB6yDEjgSq5eIWGfkyNHa7pRqNfRVInhjfYt4d8QvTuvRN+4W3EVS0jgigh20XbbsNfcq528vzNJ2jZucLncPeuOg6++4406tv/Gmm+O2xxvxIXO2bNlaoj5MRWlZVLEv8YFzvNZgEZvOGWecpWP3WuvkhzbGCJZXmYqOGzKsprD0gqF3nbUQYV3Xbt3lDuzLWFvwv/W2YdquUaMmjkQz6zrwPLVOXa2HNddbcG3YsYqw8a6uMO/xWcC1JxkcHLnZ1OOSaWHl4j1HiQ76yy+/cgYMHKRtuvfo6cCC5y4S7a/rJEBHr+nHH3/CkZsLZ/ny5Q6u/3QKzg+s7fg8zpv3svPUU087f5V+Fyxc6MiNTcIuYV3HdSKZC3TmYfyEvzgvvjjb2bhxY+wz622MbdEGFlUR9A7aTJ06Tb9DYI0urWJnHtKxqNrvoCFDb0k6HHDC8aRjUcX5wkwSPoupWLKTDoobRE4gVUuqe0CZtHX3k0vLUVhNg/rMJTZRjDUdi2qFnvpPBFkCM/QLXAI/Smxihap3WhMbQoDhix9/EEreItZnByIJ690iF9vhxwL1fuIY68U3TteL7x/eavnDZZdrHQRwaRYrVDEeTNMG/TUp/L2OwW/qP2hMEsii7SQQJm4zt1CFCPArcCXA2C67/I9xq61QheDyimNsCAF25lmttC0EjS34UUd/+JH3FvFL1HU4b2IZ9q6uEO/hJgEuEOzi4xg7Jju1GyRUr77mWr024TIAwSgWUxV/fi4ncIUBZ78/iJ4HH3rYkUjz2P7DLOBGw68/WwfhvF+mjLxFAoEStut0UWdnw4b4GyS0t8Ld9u1+hVvP7NkveXeT1nsrVCWgKqX2uDnFOaxWvWagSLedWqGKz2KqZfjwO5Tf4MGl6waR6ji4fWoEMhGambRNbZTla+sgURnFuvJ19GU/mnSEaoWe+k9kwkbkslgvdfWXB76IC+DB1D+ClhJFGLdpe54RC4MZce89Mo1/S4ldICUOUuOMHHGvueWWobH1IhTM/v37zTOTJkp+x+JYvV2wuSKRu3Di009ptQ0IqVatmuaJbN++yG6e0aud+k+lk1TzqC5dusyIiFDXCgTB2GKn/vH+o+0fqEuDXWdfxTKn+TiRqPyT3btsdWzqHy4G76xbG6t3LyD3J1h269pVckNO11XywdB0S5gu/WDblriguOHD7zTix5hSdLh7f7mwbCPFkX/zhuuviw15xMhRRnyufaP37Ub4nODzYgvcNM6XtEg333Sjum7YerzCLWj6jBnmP//3H1Ordi1TuVJlyQ5wwMishlm1arVueo24CowTlwEUsZZKQvp/6rL7X+XKleIyBqxYsUJcOz7Q/Z1wwvHmm2//ZbZt3SoplObpFHrTpk3NiuXLzNHi9mGL+OBqKi24pFQVFxTkCxWRrucaEfcIYnxj9UpTr14920SPEzxOPOlEU6N6DXV7Et8p7QeuDiiTJz9r+vTurcthx68bu/7Vql1H3ahSyYwA95qLu/fQhy8g522Y4CbkRxU/5JSv7UWvvmrkRl2zALy5ZjUT/7vOXXleTHe6H8eUSdvyzCTM2KKY3g/qM8yYKvI26Uz9V3ihCnG45s23zP4v9pv9B/ZrbkBE2yPCFyWRUF22dLFERrcqcb0g+T1ATxJ/0n79Limx3uZ8dPv9IWtAnTp19Ye5fVGRqSQ/xN6yb98XBj+u8P1d/tpSXY08h1dccZVB8nKUZs2aagTvJcXF5phjjtG6dP5ZoYooexx/UIHIQ2L4IKEKvzkwAeMv5SlW4IsoZ3F/UF/UpUsWx3ZhhWqlSpXMF/s+j9W7F2TaUXxfW2oVhJUsQIkAABLnSURBVCoEK4r1Ue3Q4QIzd85LWuf9J1PCktbnJgPxsuaNwzkr21/QUf0qZ0yfZi6+uJs2w3lp2rSZRmCvWvm6adGiube7nH8PkSgBf6Zt2zZm0cIFcZH4YYQq/NEhyL6T3Jp79+418+fPN7NenG1w/uCHDb/eMEWCicwttx6Kvl+x4jVzpuRmdd8wuvvAZ+Tll+e6q3yXd+3aZTqLvzNuLEePGmmGDLnZdzt3Ja5N5IjFZ+3CCzuWyKXq3tYu4/iH3T7cSJCfXovwLUUGkHTHn6pQxf5xAyzBXpo7dd68OZohw44v0Ws6QhWf42J5UALO+9w5s02RnAuW8k8gE6GZSdvyTyb5CINEZRTrko+oYm+RjlCtsFP/iN6GLyqmyTCFhykzsYY68K3D9Lud1oNvo7vYqX8JDHFXx5Yx5Y+2mOb0KxKMoevd06l7JKrN7g/TfkF/mJZ0F/gBwodVUtLE+kCEO/znvD6C7nZBy3bqP9Oof/jIwh/RHhvGVdS+g9OzV2+N5Ec9shO4i536h39qooLjsn26/RDt1L/8aCdq6qxdu1bbevuHzyH6RMYFW+ArjDqMuSIW+GO3bHmmZonAtLG32Kl/XEupFGS+ADe5mUgp64TN0PHc5Od1d4hgh0uB9w9ZLsIWZPXAWPpffW3YJo5Yd7UNrtewBT7P9rtEAie1WbrjT3Xq37oNIfuB24c92dhTnfqXG9iY61JQloxk++X6siWQyZR9Jm3L9iij21sU0/tBfUZ3JLnRczpT/xVSqMJXUSJj9ccIQkmmkuPOoDvFi1fsWaEq0fhxbeybdIQqfuTwY4o/iV62XaX8+vbbbztXXtk/1hdSQMEvNtVSGkIV6SQQ/IVjQhCTl5cVgbgxcBcrVOHvKJYi96rYslhUY8foThdlhWpxcb/Ytt4FBNlgTF7xCdGGc4v92nNw7YCBui3SfFXEMnHSM3p88C9G2i/vH8Q8WMFHGev8/K79uCD9GjiirVjN/Tbxrbtt2O3aBjdzpVUQzIdxwHc2bEEQHtrgz14LYdraVGiZBt2lIlTHjXtMx3nGmWc7CGZLpaQiVOHni5saMEFQGUtuEHALTbc4wnKy4m6L5Xwtbm5eBlGs8+4j395TqP56xj/44EP9wpUpNgcCxVtk2k/X40s5kUXVK7xsH+kIVbRFMAb2J4nLbVdpvy5fsSI2fvHdS7mf0hCqzz43WceQSNxMlUApHG8iiyrWIV+aX0GgC9bXq98wbrUVqrAuJyr2xxmC3lvksZLaL8YGsQUrO0RDKmLF22d5fm9ZgGWYvzAWdhwvbo4QHIU+ZRonNAJYPdHGHTAYunGCDWGdRZ8IPAxbYBFFG9y4pHKjB8Gf6jH7jSmsULWfIdxQJPo+8uvf1tnznyyYCkFddsbmvvvut835Wo4JfLRjp+Y3dQsp73LQ8ClSD9Nxcztce2gpinXefeTbewrVX8/4/AUL9AcFVgi/4k4jVVZC1ab18csm4DfGZHU9evbSY4RFKdVSGkLVRgUnSpMzcNB1Or4goTpt2nTfoctzzrWtN0OCFaoQC7jZ8BZYaOHegfVu1wu7HT4gWIcHPtjMD/37X2NXV7hXJEyGC0uiP6Q9A4977h0R2yYMBMsRU+FBD7dw94Xt7M0aHthQWsXOMKQisGBBx3F73WyCxrR16zZtg4wTSFWXSQkjVDEzgH1BHPulVQuz/zBCFRkhYE0HDzxAgyU3CLiT80N0Qrjiz12f6EgoUuPJRCFGg/qM33v+vaNQ/fWc2x9SfPliqtldYE2xlhGsLyuhilyEeCIQ9okfSj9LDsaKaW9bMNXvZxHGFKC1aOEHNNVSGkIVT5TCsSCtkzflEJ4ShnX4CxKqyF8Kvzh3WblqVYzTm2++5V4Ve9IO+u3X79ISbPC0K6zDk7u8T+2xHUlQlVpRr7l2gG6LHJ/5WhL5qML/Gn6cNt+qmw98hjHNDs5wnXAXnHc/X1hcw7hBQxu4ZHg/c+4+vMvIg+yXSgpjs64NsIy697tHfMIxPe+XQmvtunV6fWAsEIPuAuss3IK8Bf1h3GiD3MaZlmRCdc2aN/UaRd5lfJelW5IJVfDB5wjHhTRyft9J6e6b7aIl4Bab7j1BrLpFkl2227jbYZnFiePl5WH54dVb0l3n7Sff3qcjVCtk1D/S5HS7uLsREadpaBDdi6dAfbzrYyNCSJ+mIz8GRn7c9JnkiOC1xaan+t+/v2vq1z+cusaut1H/M2dMl2edd7XVsVe/qH+7UiyIZuSo0ZrGp379+voEnxMkov2bb76VtDMfSFaCAwYR8nhqEwqeyb5p02ZJB3SeptFBeiWZLjfLl68wImg1BdP06VP12ep2H2Fe3VH/X325P7AJIvRwzN6of4y1qOgCjfCvUaO6PG2qi6QjqmTel/FuldRBd8mzwR96eIxmTkAGBVts1D/SBiFFEM5BO0l3pOdn98f65DCcv549e2iKMNsOrzbqv02bczRqu3LlY0zbNm3Myb872cjFb7Zs2apR7Xii1cCBA9xNY8s4B3geOgqenLV1y6a4dFWxDfNgIVHUv+Q7NWK91ie6FRY20aeOiYjRqP+NG9/TtE2nnnqqWb3qdXPiiSfGSNknGZ12WkN5Gk6hOb7K8ebrf35t3n/vffP9wYOmSpUqZsH8V1LKroBxYDzVq1fXz8spVU+Rvr6XJ8Ft1/EcccQRBk+K6y9PK7NFbvj06U3YX8sWLUztU2ubn//7s/nk00/0OwHb9ZMUcZMkVZy7iODVY2smGSPqN6iv1wWelCYPntB0Ujiu11csD/10LHff7uVkUf8SXKafC2TlCMrucfrphfp94e7bvZws6v+VV+YbyVmsTbAf7C9Ree65Z8xFnTolWs36MiaQKBp9x85dZszYCSVGM2vm5LxOQVUCiKsiEUtsEsU6167zcjEvo/4xfQeLAJ5a4y4I9rEJ87Eef/D1mvz8oYhjmwTea92BdQbbJvIJS9dH1Y4NPqWYtrcWUTs2RCBjKvarrw4HTMBHDRHRdhv72qhxoSO5QkNPu9p929fSsKiiL/jbWt82jA1TlZh6t364cL1IZFFFO0w74ilA8EW1x4aHMCCYA9P43mKn/iUvqD4tBxzhh2zbItgl2bQyrHv2HI+S56Lnc0lkUYXfKSxslpPli/PbouUZ+mQovyc1ySOCHb9E+5jBQCBVOr7A+LzA6metkHYs8C9GPfzRvQXWdDw0okHDRrFrA+0QAIbIecnx622i7yXnaCygyO4Hrwg2wwyCn4XWt6MklfZYEiX8tw+tcI/Bb7lDx06Be0pmUZWUYXF8/PZh6/J55iEQcpZWWmuen1XUzw2AltTEJ8qyLE2raVCfiUeSH2vyzqIqEfuauB+5Eee/Ms+0a9euxB3KDz/82yBpd82aNdRCVGKDLFWIEBOryV4jvntq2ata9XdxDx5wDwv5Gr+RZ50jkTqsl1WrVo3Lh+neNhvLsO5+K0nY69Wra4477rjAIViLKo5j65bNuq18PI3cGJhjjz1Wz1OiDqxF1W0NQy7UT3bvNrVq1TZIBp+sIDet+EpqPt2331qjlr9kbfJ1PT5fOK9IkH90paNNgVjBK1eunBSHZLkwsESKsNM2mAnItMgNpVhQ90ni/n+bamJdrVmjRtLPAD5jyKP8Lxk/rLsFBXVCWc8xa4EHERx55BE6k4HrkoUEygsBt9W0uE9PU9y3p+/Q3NvZDQoLG5sRdw+3b/kqBIKspjbHrB+3oHVBfeY79HQsqjk99f/O+vVGUhXped+8+X1Tq2bNfL8Gyv3xW6GKqdxtWw8J1bCDtkIVDzx45pn4aduwfYgfpZHof9OyZQuz8vUVYZtxOxIgARIoFwQWLFxiFixaomNJRaj6ia1ycUBZHkQUojKKPrOMqdR2n1dCVYIazPwFC9Ui2aNHdzNt6pRSA8mOoiOQTaEK63q7ovZiLfvawOeub58+0R0oeyYBEiCBCAi4hWqQ+LQWPwwhaLsIhphTXUYhKqPoM6egBgw2r4Sq+MspCjzmdMrzk3VKPIANV5UTAmUtVOEWgkCR9ySg56+PP24QRIdAHzzDHIE4LCRAAiSQSwTcAhTjhggt7tNDrKyHHr29Y8euuMOhSI3DUeJNFKIyij5LDDxHK/JKqGIauEmTJgbPfafgyJ0rtqyF6v9cepmRx6oa+MGiwL/3tWVLxF+xIHegcaQkQAIk8CsBtwhKBoUiNRmheB/V5FuntgX5l+SVV0K15OGzJhcIfCyBT/KwAHPSSSebmTOmpTRkuHrMmDHDtC8qMnfcES4gQJ6gJSmv1pmjjjzKNG/R3AwaODBU0FVKA+PGJEACJFBGBLwWVe9uIY5QChs3Shho5W2Tz+/drhSlzSHIh7i095Ur/VGo5sqZ4jhJgARIgARIIA0CVli5BWlhYSPtqbDJIZGaRrd53QRMd0ieda/bRCZQKFL96VGo+nNhLQmQAAmQAAmQAAmQQJYJUKhm+QRw9yRAAiRAAiRAAiRAAv4EKFT9ubCWBEiABEiABEiABEggywQoVLN8Arh7EiABEiABEiABEiABfwIUqv5cWEsCJEACJEACJEACJJBlAhSqWT4B3D0JkAAJkAAJkAAJkIA/AQpVfy6sJQESIAESIAESIAESyDIBCtUsnwDungRIgARIgARIgARIwJ8Ahao/F9aSAAmQAAmQAAmQAAlkmQCFapZPAHdPAiRAAiRAAiRAAiTgT4BC1Z8La0mABEiABEiABEiABLJMgEI1yyeAuycBEiABEiABEiABEvAnQKHqz4W1JEACJEACJEACJEACWSZAoZrlE8DdkwAJkAAJkAAJkAAJ+BOgUPXnwloSIAESIAESIAESIIEsE6BQzfIJ4O5JgARIgARIgARIgAT8CVCo+nNhLQmQAAmQAAmQAAmQQJYJUKhm+QRw9yRAAiRAAiRAAiRAAv4EKFT9ubCWBEiABEiABEiABEggywQoVLN8Arh7EiABEiABEiABEiABfwIUqv5cWEsCJEACJEACJEACJJBlAhSqWT4B3D0JkAAJkAAJkAAJkIA/AQpVfy6sJQESIAESIAESIAESyDIBCtUsnwDungRIgARIgARIgARIwJ8Ahao/F9aSAAmQAAmQAAmQAAlkmQCFapZPAHdPAiRAAiRAAiRAAiTgT4BC1Z8La0mABEiABEiABEiABLJMgEI1yyeAuycBEiABEiABEiABEvAnQKHqz4W1JEACJEACJEACJEACWSZAoZrlE8DdkwAJkAAJkAAJkAAJ+BOgUPXnwloSIAESIAESIAESIIEsE6BQzfIJ4O5JgARIgARIgARIgAT8CeSVUN27d68/BdaSAAmQAAmQAAmQAAmUIFBQUFCiriwrKFTLkjb3RQIkQAIkQAIkQAI5RIBCNYdOFodKAiRAAiRAAiRAAiRQdgTyyqJadli5JxIgARIgARIgARIggUwJUKhmSpDtSYAESIAESIAESIAEIiFAoRoJVnZKAiRAAiRAAiRAAiSQKQEK1UwJsj0JkAAJkAAJkAAJkEAkBChUI8HKTkmABEiABEiABEiABDIlQKGaKUG2JwESIAESIAESIAESiIQAhWokWNkpCZAACZAACZAACZBApgQoVDMlyPYkQAIkQAIkQAIkQAKREKBQjQQrOyUBEiABEiABEiABEsiUAIVqpgTZngRIgARIgARIgARIIBICFKqRYGWnJEACJEACJEACJEACmRKgUM2UINuTAAmQAAmQAAmQAAlEQoBCNRKs7JQESIAESIAESIAESCBTAhSqmRJkexIgARIgARIgARIggUgIUKhGgpWdkgAJkAAJkAAJkAAJZEqAQjVTgmxPAiRAAiRAAiRAAiQQCQEK1UiwslMSIAESIAESIAESIIFMCVCoZkqQ7UmABEiABEiABEiABCIhQKEaCVZ2SgIkQAIkQAIkQAIkkCkBCtVMCbI9CZAACZAACZAACZBAJAQoVCPByk5JgARIgARIgARIgAQyJUChmilBticBEiABEiABEiABEoiEAIVqJFjZKQmQAAmQAAmQAAmQQKYEKFQzJcj2JEACJEACJEACJEACkRCgUI0EKzslARIgARIgARIgARLIlACFaqYE2Z4ESIAESIAESIAESCASAhSqkWBlpyRAAiRAAiRAAiRAApkSoFDNlCDbkwAJkAAJkAAJkAAJREKAQjUSrOyUBEiABEiABEiABEggUwIUqpkSZHsSIAESIAESIAESIIFICFCoRoKVnZIACZAACZAACZAACWRKgEI1U4JsTwIkQAIkQAJ5SGDBwiVmx66PzY4du0xhYWNT2LiRKe7bMw9JHD5kMFmwaMnhCp+l4j49856TD5aEVRSqCdFwBQmQAAmQAAmQgB+BMY9OUIHqXZfPIiwREy8jvM9nTn48guooVIPocB0JkAAJkAAJkEAcAa8ggzUVVlVb8lGE7di5y4wZO8EiCPWaj5xCgfFslI5Q/X8AAAD//1+2wvQAAEAASURBVO2dBZwcRdqHCwsuQWMQ4iRYcA18yEGAYEEODne9w90lOIcdcIcHgpMggSO4c4clECCCa3CCQ3LH9Vf/Cu/Q09sju72d2d15Kr9Jd5f3070z/36r6u0Zvv3228gHZ5///e9/zj6//vqrs89///tf95///MdpO3XqVLfCCis4AgQgAAEIQAACrZPAkLPOd+PHTyx0/rhjDnN9l+jjRtw50o24a2QhfvAWm7rBW25aOG7rOzvusnfhFMude5LTsKFXFMqxk07gpZdecu3atXMzzzyzm2WWWcJ2pplmcvaZccYZnX1mmGEGFz4I1XSYxEIAAhCAAATaKoFSItXONynCygk2K9MWtvHz7tu3jzvu6MPKnla1orZsJXWUiFCto4vNqUIAAhCAAASaQiAuUiXGBm8xKFhSk3XFRZvSzOKazNcaj5Pnluc51IvIr4YhQrUaSi04z5QpU9zLL7/iTeAzuhVXXLEF95SuQQACEIBAayQQF6nqfyURFRd01VgYWwuTuCV0evSZaQHTKNelUP3kk0/9nNkpbsEFF3Rzzjnn9Ljfcmvj3XffdausurqbbbbZ3Afvv9ukdr788kv3448/uvnma+/mnXeesnV8/vnn7ueff3bzzz+/m3vuucvmJbHtERg/frz74YcfXOfOXVynTh1TT/Crr75yr776mvt68tdu4YUXdt27dS+ZVxXYPZVamY9syt/pd9995yZPnlyqSjfXXHO5BRZYoChd8+g/+eSTorj4wcx+blTnTp3iUWH/ww8/DHP0GyT8FtG5c+cwp6pUejXxn332mfvll1/coosuGuZilSuj/oyfMMFN+WWK69Gju+vZq5dr5/teTdCD76effurmmWce1759+7JFpvr1B2NGj3GTPpkUrlGf3r3D9S5biMRWRyApUu0EKonVeLm2Irji52Qc8tq2JYGflVFdCtUNNhwYrJB/u+Rit+2222RlWNPyzSFU99xrb3fPPSPd0Ucf5Q495OCy5/PH7bZ3jz32uBsy5DS31557ls1LYtsiMHr0aLfJoM3CYskjjzzCHX7YoUUn+NRTT7nz/3qB+9e//h0WWsYT119/PXfaqacG4RSP1/5mm2/h/v3v55LRheOLLrzAbb/9doXjanbOPvuc0JdSefV3r7//eHjq6afdVluV/j7o4gXn6NEvxosEFp06L9rgfOOZXnzhObfYYovFo6re14LVv15woTv33POCGB4/7rUGAtsqe+bZZ93pp5/h9KUeDxLXp512qhs0aJN4dIP9t9562+222+5u4htv+O2u7uyzzmyQRxHff/+9u/Cii93Qodc7PRBY0AKGbbbZ2p1y8kkl+2h52bYOAnFhJuHUt0/vqhZMjZ8w0Q058/xwkm1RcMUtq80lwvOos3XcZZV7iVBFqDqEauU/lHrPIUvbuuut7958862AIilUX3zxRbfxJtNW+Pbu3cstt9xyrlfPnk7W+juGjwhbCabHHnvUW+7nLcK55oC13BtvvOlUbpZZ2hWl6eCoo45wAzfcsEF8uYgjjzraXXfd0GABnS/FMjhwww18vUcWVXH33fe4vfbeJ/RPFuNk6NBhEXfzTTcWRev8+i25dFiJ2ttbFNPCzTcNcx06dEhLKhv37bffuQMOPNA9+OBDhXylhOqNN93kDj308CCY+/Xr51ZZZeXQph4enn76mbAK9o47bnMD1lyzUFd85777/un+/JeDgrVc8aWEqqy6ug8kajWisvpqq7n+y/V3k7+e7G659dYgXNdYY3U3Yvgdoc14G+y3LgJJkWoLhOLD+jqjpGU1LlLT0lsXhfTe5iEq86gzvfetL7YpQtVp1f8333wT+aG16Ouvv478l3Xkh+8iP2QUffzxx9EHH3wQeUtf9Oabb0bjxo2Lxo4dG/kfMrm0ahHhDxtsGC20cIfo1ltvaxH9ydKJd955J5zLoost3uRq9thzr1CHt4ZVrGPbP24X8l5x5ZUV85Kh7RA46aSTw3XfYcedwvbc885vcHLKc+ddd0XeVV1Rmr4j+vdfPpQ77/y/FqXpYIm+S4Y0P2WgQVpTI+ye9iMFVVdxzTXXhn4cdfQxVZeZMHFiKDNgwNpVl6km42uvvRattPKqoW7/IFlgpO/atPDFF19E6/9hg8g/FDRIPvzwI0I9663/hwZp3nVgdMqpp4X07j16RfsfcGDY90K/QV6L+NvfLo123nnX8J1vcdrqO7/r4t1D+VEPPBBPYr+VETj9zPOiHXbeK3y0nwzDR9xTSFc+HSuMGz+hKD6tbLKu1nhsbLRtrpBHnc3Vt1rXI/0oHSk9KV2p7xrpTOlN6U7pT3036rdGulT6dIbW7p6qMUP/P/30k5tjjjka/QgiX7IqW24ep9I1t1T+v6oNsmjIj5j8hyn4C5Z5jmpeFlXNZdX5aUiwsUHzIDWPsLFB/nxl/Zt99tkbW5T8JQg899zzbvMttnQrrbSiW3fddd2ZZ57lkhbVEkUL0acPOcNdfPElbqONNnJDr7umEK/rpaFz/Q18/NEHTbpXCpXFdrYcvJV75pln3ch77g7WxVhSyd3zzjvfneOH2KuZAmOVPPvsv9wWWw52aw0Y4GSxbI6gubIrrbyKny/7qdtv333cSSed6Jbo28998823rpRFtVy7sn6uvsaa4Xvj3XffLpqv6sW5O/qYY12XLl3csBuGOk0fOO64E0paVMu1o7R99tnP+YeVMC1E9wih9REoZUlNnkmaZTXuR7UtDvkbg3LWT+OXdv7l0srVae3W6xaLauJRwc/Pik4+5dRIFpLFunYL1oEePXtH/oc6evqZZxK5px2uueZa0fZ/2iEcqPx++x8Q9e69RCjr55cVlfnaq/2DDzk08gugooUX6Rja2HDDjSI/9FaUL34gq4cXB6FPHTp2DmUGbbpZdNddd0eTJn0S2umyaNd4kUbtm/Upq0VVTzSXXf73aOBGmxTOX/0asNb/RcNuvDHSeSTDQQcfEq2w4sqRrGn+BzWSxa5vv6XCOS3bf7lo7733bWC5sTrEfeuttw2HsuBsutnmwaKzSIdO0RprDohOPe30yP/oW/boyaeeCm35ocvIv4iiEJ/c8UOoIV+a1TCZt60f+4epaOVVVou6dFksmjBhQnTGGWeGa9NYNl6ohnK6nvGgJ2CNbiyzbP94dOZ93XOqVyMO1QYv2EKZG4YNq7ZINHLkvaHMfvvtX3WZajI+/PAj0S233FrIat9FpSyqhYwpO5MnfxP6KB7iHQ/6OzjhhBODNULxspYqXzmLarx8cv/Y444P5cWS0PoIVLKkJs8oaVk1q2BbtaTa+dt5pllU80izdut12xSLapse+pdo1Be1hiO9pSTabvs/RZ39j7TiJCz9oo8G94p+RPw8tegjb4aWuFJeCVXtj7jzzkL+119/PVpu+RVDusTZrrvtHsSVtyiFOP1gJIOEgrcOhfSOnbpEmrYgUbzcciuEOBu2awlC1fqyeLcekTjusutuBcEqJknRrnPVuSjtwgsvinr36Rvy+8U10SaDNo00nUFpSy/TP5j8k2zEXdfmH1dcGUmcisk2224Xrf1/60YS9Crr501GfvFHKCrRquuk+FJDkxotEEvl8U9xySbr7viYY48LLLw1NJy7TQFojFAV97XWXifU4+eNFjH0c1NDfNqwdFHGRh7YdbZrX01xPz819KXUvZFWh85H98qJJ56UltxscfYd1BSh+tLo0aGPfZboV7E/+jvU+TRVqOr7UuWvvvqaim2RoWURaKxItd4nxWpbF6k67zzEaLk6jXW9bhGqiSvvV/5Gjz/+RNE8O4mXnXbaJXwBSzQmgwSThJIfXotk5ZOYTVoPNW9Pc8j0Ja4f+3j6mDEvR7LaKi0phGWhVLx+ZPSDEw9XXnlVEM9KbwlCVXNGZAXyQ/6FbkqkSKBaH/2wfCFNOyZUlX7IIYdFfmpDIf2zzz6LNthgYCi79TZ/LMTbjlmZxH7o9TdYdNjqxra5jxf4H18LZtmTiE4LN954U2hP17Heg/4W9HC20caDCverHxYOfKoVqrL4777HnqGMHj6Slmzd77r2snJff8Ow8MBy6aWXRffff3+k69+UoL81PdTpAfC2226PLrnkb5HuAT00ShiXCn7Ff+iLRhb0d6f5tLofXnjhhaLvg3h55VX/ZVG96qqrQxmJNH2H6CGzuYI9zDZFqB5//Imhjwf++S8VuyNOOp+mCFVdL30P6SGxMZbsip0iQ+4EmipS1bEsZXM/sZwaKCcq80jL6TRaTbVNEap1NUfV5oT4IT7nh8iDv8Bxr79q0WHrFxAE36LyGTnq/vvCfK+iDP5A7p80F1TzLl979ZUG815tfty6667jbrn5plBcfgqXX37F4GfyvHPPcTvvvFOyWueHyt1DDz3sZp11VvfhB+81SK8mwuaoaj7tXHOV9yv79Vdfuyl+Dl1j3FP5H1e35FLLhBXJTz/9pOvt/Tpa+NMOOzo/zBlWKL/44vNF8+eU510/B3e11dcMrnlGjfqnW96vJrdg3DfddJC7+qorLbqwvemmm52fZuHazzefe+WVMWG+7Pvvv+/8UHbwaznWxyV9aQ7eauuwSvqkE09wBxywf6GuetuRX11vBXV+kY577NFHCm6ljjv+BOcfkMrOUfUjBRp1cV6kOvn07N69mxs8eLA78MADGlzf++8f5fxDQype3dN7772XO/KIw8P9nZopJVKr5Xv17pOSMi1K98upp57SwCfqOuuu7/yoR2q5ZZddxp0x5HQ/T3elonQvAp1fWFgUZweLLLKIO/aYoxvtWsvKx7feouq8yHcTxr8efBjH08rt63730yC83+ip7qknn3C9evUslz24nfLTO9zuu+/mzjrzjLJ5k4l+0ZbzDxtuK3+tL7/80mQyxy2UgM2bVPfS5lWW63aWsuXqbelp5eaT5pHW0nnk3b+mzFGtS6Eq5+Heqhmux6SPPyxy4G2CST5ItRAjLcj1i/cy4HbcYQf317+e1yCL+XCUC58xY6b5QZQ/wwED1nbt2rVzb0wc30DcqhItXNAChuYQqg06VSaiMUJV1Uj0+DmObrhc5PiFJxZMqO666y7unLPPsuiirXxbio98Qe7jhYsF437lFf9wm2++mUUXtvpx7tmrT3CU/ugjD7ullloypG37x+3d448/3qA+CavlV1gxLOx52V8DPXjUazjiiCOdt1I3YGRCVa6dDjv0kFQ8+juJO9vv2bOHW9O7RTpg//1c165di8r4kQV37XXXuV9+/sV17tLZzTbrbO7jSR/76/NEeABT5l132dmdc87ZoZy3lnqH9J8V1aGD2WabtUjAjRo1yo0d+2poTy+x+PyLL93YV17xLpRuC6JtqaWWCg+V+tuyoPtTrrTk83Qh/zIQ+QvVQiQ/Z9XpJQZ6yHzk4Qddt27drEg4Twn39vO3dx07dAx+Vf3IQqhHL0dQuOKKv7stNt887Ffb/5A59l9ThKoWFW68yaDw8gX5vK1mcZP8ozZFqN51993+oWJft9BCC/kHm4fr+m8ndtla/G4WoZmlbIsHU6GDeYjRcnVW6E6bT0aopvhR/eijj9yj3qn9Rx9+5D76+KPgG1Cr0LXCV6GUUL3pxmFOjs3Tgl/85J5//gW39NJLuY4dG77Rx+rXCnm9YUrCU5ZGCTm9jeYlb21MC35YMjhhbw6hKvFR2eH/n4LIKyVU9eP+oLfwvvfee04cv/ryq2Bt9tMWgo/GO26/1a211lqFUzGhevxxx7q//OXPhfj4jllq9tl7by+cTikkmVC9/5/3uhVWWKEQH9+RNfbtt9921w+91g0cODAkyWfkbrvv4eRv8vHHHilk90POzs+zdRts8Ae/Avr6Qny97UgkejdkbrXVVnV33TmiaCV+NUJVDwgSZF9735qy6A0fPtwNu/GmcE9fe83V3nPAOlUh9dNI3F8OmvYCCrOmxx8Y45Ws7e+p2/29VSlMnDjRbbDhRuGePPGE44OVt1IZ/W3KR6yE7HrrrdvAl2paeZ3/IYce5m6++Zbwliet1pe3jqb2v7FCVe3LJ6xGguQ79bbbbil4Cknrr8U1RajqR2Swf5jUdb/1lpuK/r6tXrYtj0AWoZmlbMsj0fgelROVeaQ1vodtq0RThGqbXUylFfmai6o5j5qnpcU8q662RljYYwuaFO+/kIvmdthcSa1aLxVskZXNndOcs1If74YmVKPVx2pv4MCNS1Ub+aHxkKfWc1T9D2N00smnhFX36rPOUwvH1HfN/evWvWfopxdBRedic1STi2zimeTxQHVqsUs8GPdy8w7lHUFl4/VrnqSfihDiX375lUKVWoSlvFrJXa9B87Hl81QL4vzDRgMMtqo7zR9qg8yxCM2nFlstjPNTR2Ip5XfN57EWzCloBbu8ECQ/Bxz45/IVxVLl1UN92XmX9HnKsayFXT+9JpTxFvpCXKUdLeSy7xL5RVVoav9tjmq1vmY1x1TnKO8H9n1Sqb9Ktzmq1fqSlZcT83Aizx6E1kEgy7zSLGVbB53KvcxjHmq5Oiv3qG3naMoc1TYpVLW4SaJKX+5aKf5vv8gjHuIuXiR04sEE09tvvxOPLtq3hVRyKVVt+Oc/7w/9WW31NUoW8cOLIU+thapEqthJAMrJenLRlInAJ55IF6rlhI85LNcK9Hgw7v6VnfHoon2xU7/uvfe+ovghQ6a5WbI6jaMWrTVGSBVV2gYOLr3s8sDLz/EMC9m0mC3+sdX0cieleLkiqyb4Oa/h4UXXQk6bqw1y5aYyRxx5VLVFKua7/fY7Qp1yYVZt+PjjSaGM+iLn+tUGc9rfmL/7tLobI1TPOefc0Fc9KGoxW2NCY4SqvJzYixyqcW3XmH6QNz8CcaEZF0farxTiZbVfryHOLckgj7RkG/V2jFD97Yq/+upr4ctdbmBkVUoGP+xX+KEqZVEtJ1T9PNJQ3r+zO1l1yWM/xy6UkXXr119/Tc33yCOPhjy1FKqypsrSpB9x9SctSAAqvZRF1c+JTCsW4rTiX2W1EjseTKjqbUhpQdfJ8rzyytiiLH5IOqxol/DSQ4p/N3xoQxbDeg4mVMS7mo9WeFcTdP/qHlWdfhinmiIhj6yeKmPusaouWCajrLOq84/bbV8mV3GSLKIqo/up1N9icYlpRxL8jT3ntHqqFapXX31NaE/3dbnvo7Q2FGfXv5JFVZZdeTnRuZ3kvZgQWj4BvTUqLjTjgsr2y51FvGw9i1QxMl7aJkMeack26u0YofrbFR8+YkT40pUVIi1ce+11IV1fzE0RqvYDsvwKKxW5YEpry+L83LjCUPr9o0ZZdNFWvlfVp1oKVb3CTH3QRy6qksFeM6n0UkJVQ8JJS7Xq+fCjjwo+Uf0c4aKqTYTqhQVpQa+TVJuadiCWyWCvg9WLHPyitZBXDyz1HOQQ/s033yr50cssxFSWaMtXDS990aichsJlXa0mKN9SSy8byj3w4IPVFKkqz4477hzqbIzAMjdxGhmpNujhSOcsF1/fffddtcVS81UjVOV+S21JHMtnc1NCNUJVf0vmNk4u5Qitg0Dc36mEpoSrPvH4UmeCSC0mk4cYLVdncev1d4RQ/e2a2w+pflhGjxlTdCfImmKWEaU3RaiqjFkg9t13/9QfLln5ksOi5kRfw5QafowH/2rLgpCtpVCVhclEo95sEw/y+2hTKsSulFBVmt4kFbdWyQ+liUlNx0gGa1PzYeV3Mx40d1cPBapXvlPTgt4GpnS9LUlb754oLRtxMQKl5qhqmormccb9A1sxzSHW/SvGfhGbRYet94SROhdWoxp2XfSygOTfXFEliQPdY88//3wiNgp9s6kNunfic3B1v2h4Pm3ah95oplEN9T/+Ag81IOuspgUlg+pTv1VGU1eyhkpC9dFHHwtz3v0Cw0jfZU0NlYSq+Gzt3wan8/Ju7Yr+XpvaJuWmD4G42Iy3KLEaF0m2b3ni5bRPwKI6ve+BpgjVNumeSm5yNtp4E+9vc2xwQ6PVvYsvvrh3C/WGX8X+kNvFu8jxPwZhNbveSa4VvBZs9fm///Vs8Blp8cmtVujvtPOufjX018F/5worLO86eXdUOvbDdMGH4zHe7+IhBx9UKCq3ON7hemh3/vnnd1rdvOBCCzpvzXJPPvmk2+FPf3I33zJtRW9WP6rVvOPcD5e6x7xHhOSqf1sNPvPMM7vVVl3VrbjiCt5jwsfuwQcfcn369A5ua7Ta/vbbbnVrr91w1b9W2svLQe/evf0K/uXdDP7fE/785IdT/l21mnjFFVcscNGOcd/Ir+b3bxNyq6++mltiiSWC788nnngy+PKU38h7R97j2rdvX1RWB7rm3oLuvKPykHb66ae5vffas0E+In4nYNc56Z7KP2Q4/5AS7uu+fZcILp78Q0dY9f/CCy8Gt03yXvHwQw8UXQu/mM756SLBv2ffvn3dPHPP4z797FPv5eIlN/mbb8K1HzH8Dic/ptUG9UP96dChg1tmmaXdwgst7Oua7F577fXQnxlnnDG4Qov7JfYPp94rxMahvf7LLuu6LNrFTZ0y1b319lvhO0Ftb73VYHfZZcX+Qb3gDee2tHd31b1H9/C9oHvWP0QGv6e6/x4YdX/4Tqm2/2n5Kq36l29gL7zDyv7ZZ589rYoQ169f3/D3UCpDpVX/d9wx3O1/wIGhuNqZaaaZSlXl/vGPy90f1l+/ZDoJ05dAqdXo4ydMdEPOPL9BZ4YNvcLV++r+BlB+iyjFUsl5pJXqR73EN2XVf6sXqn4lcfjxufRvl7htttm6cK31A+MXbQRBapHyC3jwwX9xe+25pzNfqE0VqqpTzu/lJPyRRx8NQsrakfAdMGBN7x7qELfyysVOxeXA/LDDDw9+Jf1bn0KRTp06elG1l9vf+6aUj1Jvwcns8D+LUPVvlHKnnT7E+SkSQQCqk/I7udlmmwZRMGLEncHVUCmhKl+Tc805lzvhxJOcf6tNeDmARO9y3sH/RRde4OSLMxlMqOoFCjd5N0B+ekVBdM4xxxxu4IYbuvPOO6esSPAeBZy3IgVftXoBgB4GCKUJlBKqo737scv//o/wYGL3qGqRu7WOHTu4XXfdNfjATYoo+d+86KJLGjjan2++ed0mm2zijjv2mPCSjdI9apjip294h/6nuWf/9a8gFi3HbLPN5lZZeWV30kknFnzqWprcRh1/wonugQceDO7oLF73YM+ePd1RRx7h+7OxRRe2un/826+879dJhTjt6Jz32H13t+9++zZ4yUFRxioPKglV/0rm8FBXqTr5j330kYdKZqskVOULWt+D1YS4S7hq8pMnXwImoNKc+kusKowf/4YbcdfIsK9848dPi08rEzLV6X/GUqcvQR8PeaTF66/H/boTqn4eZHDcL9+ISefzdgNIGMppt8Rg8s1Flqc5tn5uZ3BePr93Fi7n8vohLRdkoXrbi7h555nH6a03LTHIybhE85xzzhne0CWhUi6YH9W/+pcg6GUICn4+X/DB2qNHj7JvJDKh+ty/ny04YRfT77//IbxJSZazSuEi7+B8iH8Tj0SIfHwSshHQ39cX3rm+RgLazdrOdfXO8yvd12pR/nf1oOiHlkOZ5nhg8NMFvAX1A1/3d24Rb13t5P0XV7of/cLAcO996fsv627XrosVjZ6UovP555+Hv+WZZpox3It6UCJAoKUQiFtNB2+xqRu85aapXYvnswyIVCPx+7acGDUrdBq3cmnl6vy95frcqzuh6hfO+Nc5TrOi6g1QehMUoXYETKief/55bqcdpwnVantjQrXSlItS9Un464UAGjK98cYbGKYsBYp4CECgVRMYcefIgqW0MUI1TWy1ahDN1Pk8RGUedTbT6da8mroSqnrD0XA/BO1XE7tBgzZx11x9Vc0vQL13oJZC1eYy9u7dK7wHvZK1rd6vFecPAQi0TgJxoVpOfJrFT2dZLl/rpNB8vc5DVOZRZ/OdcW1rqiuh6l23BNorrbSSu+rKK8I8strip/XpKVQ1LC0rqqZ9aGHX8cefEIaadS9oLi0BAhCAQFskEBegOj+J0MFbDPJW1nvD6dpcVDt3RKqRSN/mISrzqDO9960vtq6Eqt7lrlXh66zzf66a+Yut73K2vh5PT6EqrwubDNoszFP07jUCLC1GO9kvriFAAAIQaKsE4iKo0jkiUisRKl7ZXzl343LAvyGvuhKqDU+fmFoT8O9dd7oJDzhg/7BKvzH98f4cvUV0ivv73y+vaq6x91Przjzz7LDQp3OXzn5BwRZuLe/uiwABCECgLRNIWlST5ypxpNDXuxIstdAqWaaej+NTKZqbQ7k5xM3dVmupD6HaWq4U/YQABCAAAQg0gYAJq7gg7du3d6ip7xLTRGoTqq3rImI63vtZT06byAIFkZpOD6GazoVYCEAAAhCAAAQgAIEaE0Co1vgC0DwEIAABCEAAAhCAQDoBhGo6F2IhAAEIQAACEIAABGpMAKFa4wtA8xCAAAQgAAEIQAAC6QQQqulciIUABCAAAQhAAAIQqDEBhGqNLwDNQwACEIAABCAAAQikE0CopnMhFgIQgAAEIAABCECgxgQQqjW+ADQPAQhAAAIQgAAEIJBOAKGazoVYCEAAAhCAAAQgAIEaE0Co1vgC0DwEIAABCEAAAhCAQDoBhGo6F2IhAAEIQAACEIAABGpMAKFa4wtA8xCAAAQgAAEIQAAC6QQQqulciIUABCAAAQhAAAIQqDEBhGqNLwDNQwACEIAABCAAAQikE0CopnMhFgIQgAAEIAABCECgxgQQqjW+ADQPAQhAAAIQgAAEIJBOAKGazoVYCEAAAhCAAAQgAIEaE0Co1vgC0DwEIAABCEAAAhCAQDoBhGo6F2IhAAEIQAACEIAABGpMAKFa4wtA8xCAAAQgAAEIQAAC6QQQqulciIUABCAAAQhAAAIQqDEBhGqNLwDNQwACEIAABCAAAQikE0CopnMhFgIQgAAEIAABCECgxgQQqjW+ADQPAQhAAAIQgAAEIJBOAKGazoVYCEAAAhCAAAQgAIEaE0Co1vgC0DwEIAABCEAAAhCAQDoBhGo6F2IhAAEIQAACEIAABGpMAKFa4wtA8xCAAAQgAAEIQAAC6QQQqulciIUABCAAAQhAAAIQqDEBhGqNLwDNQwACEIAABCAAAQikE0CopnMhFgIQgAAEIAABCECgxgQQqjW+ADQPAQhAAAIQgAAEIJBOoK6E6vvvv59OgVgIQAACEIAABCAAgQYEunbt2iBuekYgVKcnbdqCAAQgAAEIQAACrYgAQrUVXSy6CgEIQAACEIAABCAw/QjUlUV1+mGlJQhAAAIQgAAEIACBrAQQqlkJUh4CEIAABCAAAQhAIBcCCNVcsFIpBCAAAQhAAAIQgEBWAgjVrAQpDwEIQAACEIAABCCQCwGEai5YqRQCEIAABCAAAQhAICsBhGpWgpSHAAQgAAEIQAACEMiFAEI1F6xUCgEIQAACEIAABCCQlQBCNStBykMAAhCAAAQgAAEI5EIAoZoLViqFAAQgAAEIQAACEMhKAKGalSDlIQABCEAAAhCAAARyIYBQzQUrlUIAAhCAAAQgAAEIZCWAUM1KkPIQgAAEIAABCEAAArkQQKjmgpVKIQABCEAAAhCAAASyEkCoZiVIeQhAAAIQgAAEIACBXAggVHPBSqUQgAAEIAABCEAAAlkJIFSzEqQ8BCAAAQhAAAIQgEAuBBCquWClUghAAAIQgAAEIACBrAQQqlkJUh4CEIAABCAAAQhAIBcCCNVcsFIpBCAAAQhAAAIQgEBWAgjVrAQpDwEIQAACEIAABCCQCwGEai5YqRQCEIAABCAAAQhAICsBhGpWgpSHAAQgAAEIQAACEMiFAEI1F6xUCgEIQAACEIAABCCQlQBCNStBykMAAhCAAAQgAAEI5EIAoZoLViqFAAQgAAEIQAACEMhKAKGalSDlIQABCEAAAhCAAARyIYBQzQUrlUIAAhCAAAQgAAEIZCWAUM1KkPIQgAAEIAABCEAAArkQQKjmgpVKIQABCEAAAhCAAASyEkCoZiVIeQhAAAIQgAAEIACBXAggVHPBSqUQgAAEIAABCEAAAlkJIFSzEqQ8BCAAAQhAoA4JjLhzpBs/8Q03fvxE17dvH9e3T283eMtN65DE76csJiPuGvl7RMre4C02rXtOKVhKRiFUS6IhAQIQgAAEIACBNAJDzjo/CNRkWj2LsFJMkox0XM+c0niUi0OolqNDGgQgAAEIQAACRQSSgkzWVFlVLdSjCBs/YaIbcub5hqCqbT1yqgpMIhNCNQGEQwhAAAIQgAAE0gkkRepxxxzm+i7RxyWHvOtNhO24y94FYOXOPclp2NArCuXYSSeAUE3nQiwEIAABCEAAAjECpUSqZUmKsHKCzcq0hW38vGVdPu7ow8qeVrWitmwldZSIUK2ji82pQgACEIAABJpCIC5SJcYGbzEoWFKTdcVFm9LM4prM1xqPk+eW5znUi8ivhiFCtRpKLTzPxDfecN9M/sZ1797NLbTQQi28t3QPAhCAAARaE4G4SFW/K4mouKCrxsLYWljELaHTo89MC5hGua6E6qeffuqmTJnSqPtr0UUXdTPOOGOjykzvzH/aYUf38MOPuPPPP8/ttOMO07v5ku395z//cZMmTXIzzDCDW2yxxUrmU8LUqVPdJ5984maaaSbXpUuXsnlJnH4Efv31Vzf21Vfde++952abdTbXo2cP17tXr4od+Pnnn92LL73kfvrpJ7fKyqu4+eabt2IZy/DZZ5+5X375xWX52/vuu+/c5MmTrcoG27nmmsstsMACRfF2DxZFxg5mnmUW17lTp1jMtN0PP/zQ/e9//2sQbxGdO3d2M888sx02adsYJurP+AkT3JRfprgePbq7nv56tfN9rybo+1Hfk/PMM49r37592SJT/d/3mNFj3KRPJrkFF1zQ9end2y288MJly5DY+ggkRaqdQSWxGi/XVgRX/JyMQ17btiTwszKqK6G66Wabu+eee75RzCZOGFfxC7tRFeaQuaUKVVl6BwxYO4jPTyZ9VPbMdSNutPGgIGjemDihbF4Spw+BBx96yJ144snunXfeKWpwtdVWdeecfZbr06dPUbwO9HDy5z8f5O4ZOdL997//Del60BswYIC79pqrnARiqRBFkfvrBRe6c889Lwi/8eNeayAmS5VNxp999jnu/L9ekIwuHG+77Tbub5dcXDjWzlNPP+222mqborj4QRcvOEePfjEe5STkO3Ve1KnvpcKLLzxX8UGtVNnGMHnm2Wfd6aef4fS3FA8S16eddqobNGiTeHSD/bfeetvtttvuTn+3u+22qzv7rDMb5FHE999/7y686GI3dOj1Tg8EFvRAus02W7tTTj6pydfN6mLbMgjEhZmEk/ykxn2ElhKr8RXwbVFwxS2rzSXC86izZdxF2XtRV0L1yKOO9i40xhdR++yzz4O1aO6553b9+vUtStPBjcNuCNaFBgktKAKh2oIuRhvpyvPPv+AGb7V1sHQvs8zSbuDAge7LL790Dz7woPvo44+DZfGhhx4IljQ7ZYm2vfbex917733BsrbRwA3dXP7v6oEHHnASQSuttJK77dab3ZxzzmlFCttvv/3OHXDgge7BBx8qxGURqvpbv+66oaGf86VYBgduuIE76qgjC21p5+677wn9l/W3c+eGVv0OHRZxN990Y1EZMem35NJuFm+x7O0timnh5puGuQ4dOqQllY1rDJMbb7rJHXro4UEw9+vXz62yysqhzaeeeso9/fQzYVTjjjtucwPWXDO1zfvu+6f7818Ocj/88ENILyVUZeled731w/XUd+bqq63m+i/X303+erK75dZbg3BdY43V3Yjhd4Q2UxsjslUQSIpUWyAUH9bXiSTFalykpqW3ipOv0Mk8RGUedVY4jVaT3BSh6r799tvom2++ifzQWvT1119H/ss6+vzzzyM/ZBR9/PHH0QcffBC9++670ZtvvhmNGzcuGjt2bPTiiy9640DLC/7HLFpo4Q7RZptv0fI6V2WPtv/TDuEcrr9hWJUlpk+2CRMnhn516Ni5YoO6P3QdevXuUzEvGfInsMuuu4XrsfseexY15i2m0VJLLxvS/nHFlUVpox54IMT37NUn8lMFCml++D/6v3XWC2mXXnZ5Id52XnvttWillVcN6XvutXe0RN8lw76+V5oa9thzr1DHPfeMrLqKa665NpQ56uhjqi5j97gfOai6TDUZG8vkiy++iNb/wwbRHcNHNKj+8MOPCOe13vp/aJDmrd7RKaeeFtK79+gV7X/AgWHfC/0GeS3ib3+7NNp5513Dd77Faavv/K6Ldw/ldS8QWi+B0888L9ph573CR/vJMHzEPYV05dOxwrjxE4ri08om62qNx8ZG2+YKedTZXH2rdT3SB9KR0pPSlfqukc6U3pTulP7U74X0qHSp9ClC1V+1H3/8cbpdu2+++TbyloyS7ZUSqn6eYMkypRL8HLVIYqQ5gv2IN7dQ1Y9rU85N5ySOTT0/b21qDiytoo7+/ZcPguOxxx5v0N8hQ84MaRI18bDffvuH+AsvvCgeHfafffZfIW3t/1u3KE332zLL9g9pJ554UuStsuFhRQ8tWYTqFlsODnX++9/PFbVX7sBPOQhl/JSBctmK0p555tlQxk8ZKIrPctDcTN58863QRz9FIZoydWpR166++pqQttzyK0avv/56dMWVV4bjckK1qILEwd577xvK+6kXiRQOWwuBSiLVziNNrMbFVlsVqTr/+HkaD9sav7TzL5dWrk6ru163CNUqLap+3lZ08imnRrKcLNa1W/gy7tGzd7T5FltGTz/zTIP7RxaOFVZcOXySPw6W+dFHHwvpsk4kg9L042cWCv1w9+69RLTTTrtESSuRCdVbbrk18vMJo3322S9afoWVQh9loRw8eOvohRdeSDYRjiXcho8YEf1xu+2jpZfpHy28SMdIwlI/XBIkfg5aarlqIptLqPqFKpGfPxisPSuutEqkH1zx8EOu4Vz1dJUM+tEV/zPPPCskXXTRxdE6664fdezUJeqyaNdogw0GRjfffEuyWDgeev0NoewDDz4YSZwecshhBYufrIW6Li+NHl1U9gIvztSe8pYKEth+2DTkSxOApcrVIn6ttdcJjJ988skGzZ9xxjShesyxxxXSdI8v3q1HKDN6zJhCvO34hUqFdD/9xqLD1i8EjHTvWrC/ryxCdcBa/xf6or+HasPRxxwbytwwrPqRiZEj7w1lJNKbMzQnk8mTvwl91N+MLA7xoIe2E044sfBQIGup8jVVqB573PGhvFgSWh8BE1ISTWlCK3lGSbFqYquassm6WtOxnae2yZBHWrKNejtuilCdQUP/PoT5UNpqxat9NE/NPv6HOSyu0FYraldYYYUWNydCCwKOOPIopwUid991Z8n+DRy4sfM/wGGRwBL+LRyzzTabe+qpp8N5aRHBPXffFeaFWQVapeuFXzj86MP3Xbt27SypsNW8sN1238P177+sn/s3qhA/fPgI561Vge/iiy/ullpqST937Ec30S8y+uSTTxssdLA5qgcfdJAbduONwbOBFrr86rmPefnlUK/6qPNbddVVCu1o55FHHnVe6IZVyT179gyrhF9/fVyYt6v0tdde291+2y3abXRorsVU3qLsWS4bzkveA3r37uVXdH9TWDSiFcfPPPOUaz/ffIU+6rw33HAjt/LKK7muXbs6Me3pV6xrJfkbb7zptDJaYc8993BnDDm9UE47l156mfPDoW6XnXcK19xbpJyu+bzzzuf88ENYTT6rv54XXXyhG7zllqGs5j57a2G4zmNfGePmn3/+ojp14MWp8w8EYcHYq2NfcbPOOmuDPC0l4vQhZ7iLL77Erb/+em7YDdcXPF94oeO8iHV+qMUzvb0w51HzVpdffsVwH334wXthAV3yXLYcvJW/Ts+6q6+60m266aBkcuHYP0iEv6ssc1SXXGoZ5x8W3Ttvv1l2AVehUb+z9z77urvuutvdcMNQt+EGG8STSu7b98d+++7jTjnl5JL5siZkYaLvLX1/6Z6cMP71sl3xD3RuyBlnNviOKVsolqjvEn2nnHXmGW733XeLpbDb0gmUmpNaqd/JOattcfFUkkG5+aR5pCXbr7dj5qhWaVGVRe/xx5+IZN2zIMEuC6csEP5H2KLDVvMmFK+PhvLSgl90EtL/sMGGRcmrrb5GiE+z7PgLFnlRUJTfLKpqS9ZUvyq3kK65grLYKs0Lt0K87WioVcN9muMRDzpf67+GbZsSmsuiqrZvv/2OKGmJ82IzWm65FUI/zz3v/KIuyqpn/Zfl1Xt7KEqX1VSWY+VJpplVSWkDN9rEz4OZVCgry+BBBx8SysnCHWftvRaEePFMCzb/zz8YpSW3qDhZ4VZZdfVwPrIge3EfPfnUU5Es2uIiy1k8vPLK2GlM+vSNRxft+4eykOdqP9xcLpjFvKkWVf2NynKuem677fbokkv+FsniPeLOO8N5lGpb56lz09D/ZZf/PTrv/L9GN954UxiNiP/dx8srr8rIonrVVVeHMjo/fVdobm5zhSxMjj/+xNDHA//8l4rdESedT1Msqv7hPIxW6O+qMZbsip0iQ+4EGmtJjXcoS9l4Pa1pPw+rabk6WxObPPraFIsqc1RjV0LD8Ppi79tvqVhsFCb4Kl6fxghV/SAuutjioZymG1QTTKhqEUraj6N+NNSPzl0WC3MAq6lTeTTNQeWuvfa6aosU5TOhqjo0D7HcxxbQNHYxlRa+qH4twomHuFCVcEgLJhy32/5PRckmVDUNIimOlVFD+Da1QiLIgqYSqC+aYpAMui7lhsaT+VvCsR6IJNR1TmKhraY+eCtig+5pqorSNf2hVDCBf9ZZZ5fKEuJNlH311Vdl85VK1Jxu9aXURwvEkg97qssWfKWV00Kl558vfthRmeOOO6FkO1p0dtNNNytb5tBUJnpQ1ffJIh06lRXp1kETqo1ZUGZlDzvs8MBi332bdxqE1c82HwJZhGaWsvmczfSptZyozCNt+pxVy22lKUK1Lof+S5na5VS8zxL9QvKkjz8sOPbOMvRvQ6Qatr7wggvCkHWp9hVvQ/8777SjO++8cxtk9bef8z9WYTh1zJiXUp2WNyjkI/wcROdFnjv0kIPd0UcflZalbJwN/ZfNlEiUa6DG+FH1VmnnhUeYdjHynrsLtdnQvyLGvf5qkRsly+QX2jjv7SG4H3vrzYkWXRj61xSDp596shAf35GPTr9gxG3k3TYNHXptSPLzfcN0D29pd48+8nCYsmFlho+403mrm1vCT8l48snHLbpFb8eOfdUd6afFaOh4jjnmCM775YZp7733csf4+yE+ncXP1XR+pX3Z87P7KW26RRyEf6AKU4Y0TJ2cQuEf5LxD+s/i2cP+bLPNWpR31KhRfprGq2Hax7zzzuM+/+JLN/aVV7wLpdvC38FSSy3lRt1/X9E5TPBO8v2q+eDzdCE/ncRby4MbJj+y4bxoDlMIHnn4QdetW7dC+/r7v/LKq1z7+du7jh06hmlPfjVqqEfTQRSuuOLvbovNNw/71fY/ZI79V45JLFvRrn9AdhtvMsi9+upr7vDDDvXX8oii9LQD+Uf1c5DDsL2G76sNd919t78v9g1vxnvs0Ydx/F8tuBrna+pwv7qdpWyNTztz83kM75erM3OHW3kFDP1XOfSvZw0NNWvIWIuM9tv/gGiHHXcKi6nMAhNfTZ5l6F9WEFsJLUuIF6LRQw89XNIaahZVDVWWCt296xn18913322QRRZC1S9Loiwpck207R+3i2zltxbPNCWYRVVDgf4HuuxH1ir1r5xFVQuYNKx+4oknBQuqLKFaRa5ymwzatKiLZlHVwqlSIX6Nfpt3HbKaRVUMSgUtQFO7SeupFhgpPjk0btcozT1TqTZqGa9FVLaoSZZQebnQ6IEW2en8Bm26WRRnpgWFild6qaChZ+WptCK8nPVQi4FUR/Kz9dbblmq2KN6L0cJ5xa3hRZkSB5reYYuzktb3RNbCoabU/OWgg0M/tehSU0YUmtr/ckwKjcZ21L4sx+KkxZT6G68mNMWiKmuH7hX9nT/xxBPVNEOeFkAgizU0S9kWcOqZu5CH1bRcnZk73MoraIpFte6G/r/2frk0F1WiUV/8GkpbdbU1gjjS3FT70bQfI90TcRFUaujfVgwn56iqvIYvJRC9tbZQv3xNJlf8K6+JoLQhWaUrlBKqmsNnoljDu5rPKX+Lcu9jokTCvCkhLlQrldeNKI5pQvXll18Jq+WNs4aftSrdv2ksCEXFb7xJulDV+ZQKerCwOjUH04IJVe+83qIabCXkVDZZv6YKKL63n6tp3h4011JzJvVJzgVuUHELiNA0BXmA0Hkk59tq7qoeCpQmIWZB01QUp2tTKuy8yzTfrJrLWS6UE2Vqf+VVVmvwOeDAP5ersihN3jvUV/Wn2qAHuUrnl6xLAte+M+QXVaGp/S/HJNmujjXHVP2VwNZ3SbWhsUJV111ztdWWX8hZbTPkqzGBLEIzS9kan3azNV9OVOaR1mwdb6UVIVQrWFRlifArZsMXscSQHy4uutT64dGXtD6NtajKQb/Kaf5bqSCRK9c98flzyTmjJlTLOfxPE6r3jxoVfkgloGTpS7quMVczzWFRLXV+Fl9KqMqpr4l1WfbefvsdKxK23nNCYFjKoqpzkzU3LWjxh107PYxYMKEqS1SpoIU5KivBnAy6T5SmxXIKEmY63nHHnZNZW+SxMe3WvWeq/17N79RDjUSYxJiC+OkcFVfqwcy4iF250FhRVq6utDQtzFNf11hzQFpyapwW1KmMPnI9V22wFxl4bwLVFknN1xgm55xzbuinHjQnTfoktb5SkY0RqroPbNSlMb5nS7VN/PQhEBeacVGl/UohXlb79Rri3JIM8khLtlFvxwjVCkLVz+8KX/paiBQf6rQbRUOJ9gMWt6jqx8zi7cfcytjWflDKCVXLq6G8k046OdQpq5WOLTRVqJo3gFNPO92qKtra0GEtLap//8cV4Zy1qCctXH31NIflpSyqugalrJg23UCCLB5MqK6+xprx6KJ9+0FPE596sFC74qegt57pWAKwNQQNiau/WqVfKphA0Wp/C2aBl8eIZJCVVn9DqldWuHKhMaKsXD2l0vRGLfVDvoOrDbKIqoyGuON/e5XKa4RA5eStI0uolon9PcjSn3yoq6Z9u68rLabSQjf9fejc9L1EaPkE9NaouNCMCyrbL3cW8bL1LFLFyHhpmwx5pCXbqLdjhGoFoWpzEUvNvZN1U1/W+sSFqqx4mh+peDmfTwty/q70aoSqymueYJfffuzjLpOaKlQ1fUHtpzm+l1XMxEgthaqtJC7lWsdelVlOqF7jX42ZFvy70cP5J12LmVAVGz2IJIOurbFLusVSXr01Sw8TmiLy/vvvByujvBrE749knS3p2KzFpSzKOj8JJ1lV4w9vsryLmYbWk0HWe6Ul30yVzKfjakVZWtlq4vRwob40RmDJXZXKVPu3qn6Yyy5xyvLiDNVVDRNdN7UlcVzqO0d1lQvVCFW9BEMvzBCPci+4KNcOadOfQNw5v4SmhKs+8fhSvUKkFpPJQ4yWq7O49fo7QqhWEKo2JK0vZS3QiQdZWcxiovSkEDEhKh+LSbdRl156WfiiT/vx0496si61a3NatThDYslCU4WqFgupfZWPB82tPOKIIwv9q6VQ1Rul1EfNg9NbtOLh1ltvK/SxnFCVr9WkFe/Bhx4qiP7kW6LiQlWLdOJiTO3rbVfqk9xNJadLWP9s2oS9UlK+LFtLkLjWlAmJnuQ72zW9xR4eNCUmHjTPV1wkqvR3Y0EWbZsHretZKVQjysrVIR+maa6kNI1HU1zUR1lGtWjRwrvvvhtpeN7mFVu8tvIfa67FktMWZJ3V9J9kUH2aFqK2Dj/8iGRyo48rMXnUuwdTHr3JLs6+sQ1VEqrio78JnZdcwjXGutzYvpC/eQnExWa8ZonVuEiyfcsTL6d9AhbV6X0PNEWo1pV7Kv/j5jbaeBPnrSPBPc16663r9LaoNya+4bzYcbvssrPzPxLO/+i5jz/6wMl9jwX/Ck7nF2GFQ7n3Gbjhhm72OWYPdY0bN85tv/12zjsUd8suu4x76MEHQj5/Azg/zy+8AWv11VcLrnJm92/BUv33/fN+561Z4Q04ehOOBXNPdf7557mddtzBoou2XtwGdzvPP/ev0H8l/tPXt+tuu4d8/fr1c+uuu477/rvv3JP+jVtqZ/DgLd1ll13u9MarY489uqi+ag68OHQDBqwd3lL0yaSPyhaR+wnvMD+8tSnunsrPg3NrrfV//s1cP7iOHTv4t01t6GabdVb30ugxnuMr7ijvcue004e4lVZayd137z2FNsw9ld5kNddccwV+A9Zcc9q1e/ON8FYxXVu9IUlvSooH/xAR3kylt3h5i6p/C9nsbrVVV3ULLLiA838wzi/ucnrTl95otcce0/jFy2t/4sSJzi9kKUTLZc+SSy5ZOG7pO/aGIvVT96HedOYt+s6/HMF5IevmnHPOcM/qbV/x4OfjOi/Sg5s2uVebe665nfcIEMrq/rp+6HVFLqHiZW2/Ka6YrKy2/kHD+eksrkOHDm6ZZZZ2Cy+0sJv8zWT32muvh77POOOM7pyzz3I7+zePWZALLi+83dxzz+36L7us67JoFzd1ylT31ttvhb9X5dt6q8H+7+FSKxK2XvAGl1RLe3dX3Xt0D3//euuZOHlR73r16ukeGHV/1W/HKqo8dlCJiV9gFu7xmWaayc0+++yxksW7/fr1dfeO/P3vpDjVuUruqe64Y3h4a57KqR21Vyr84x+Xuz+sv36pZOKnM4FS7o/GT5johpx5foPeDBt6RV27oGoAJBZRiqWy5JEWa7oud3FPVcGiqicHLejRfDZZEeyjOWC2Itrc7qRZQbVww4bQVVaLTbSIQwttNISq4+RwoixWWjVubdlWc8LSHIg31aKqc9PUhbhVWPMINadSUwt03mq7lhZV9dG/drMwH079kaVPQ++KV9C0jFIWVTHTUKWs2pqLaiz1ggYtAIlbpkNl/j+zqMqqrJclyBWTza9UeS2Q8Q8hlr3k1lbHy7Le2oK4yMKoe9WYaSsOsqT5B6eSp3Sd/5uKl5Pjey2ES1rES1VQyXpYqpzFjx37arD6WT3Wf03FkDVQ886TQZZxvQBCoxWWX1tZlrVy3hbGJctpukP879vKyoIs63GahTZZRzXHdi6lXoJgL6Cw9kttk+7Ukm1Xsqja/OtS9cfj77///mT1HNeQgFlK06yiadMAsKSWvljGUttkyCMt2Ua9Hde9RbUxjyfffvudkzPvTp06BotnY8p6F0Xuk08+9c7CF6/KuuKH1JzK6CPrXadOnYO1sTFtVptXbckK5Oeluu7dp1mFqi07PfPpJQpfeMft3botHix65do2i6qssK+8PCZk9X/czi8wCc7rdQ1LBbOoxi1oU7117K0333SdO3dxciBfTdj2j9u7xx9/PFhe5eS+tQZZUmVF1ajAoosuWtaKFj9H3buyhC/uRyBqEfyDo+/3B34k4Ts/StHBderYMfwtleuLF+juo48+cl96B//zzD2Pf2HAYkWjJKXK+ukN4UUEM800Y3ghgFgRINBSCMStpoO32NQN3nLT1K7F81mGvn37uOOOPswO2XoC5aym9iKENG7l0srVWe/Qm2JRbVND//V+A7TV8zehquHfsa9ME6rVnqsJ1a0GD3aXX1481FttHXqg0XDsLDPP7N+Q9LJr3759tUXJBwEIQKBZCYy4c6QbcdfIUGdjhGqa2GrWjrXSyvIQlXnU2UrxNug2QrUBEiLaAoFaC1WbN7yLnwd57rnntAWknAMEINBKCcSFajnxaRY/nWa5fK0UQ7N1Ow9RmUedzXZnInF6AAAaPElEQVTCNa4IoVrjC0Dz+RCY3kJVi8+0kO699953119/vfP+X8NQ+VNPPh6Gy/M5S2qFAAQgUJlAXIAqt0To4C0GeSvrvaHw+PETiypBpBbhaHCQh6jMo84GHW+lEQjVVnrh6HZ5AtNbqGq1tHdb5TQPVkGi9aorr3AbbTSwfEdJhQAEIJAzgbgIqtQUIrUSoeI5qpVzNy4H/BvyQqg2ZEJMGyDwhl/45L0nuPnnX8ANve6aRp3R8BF3uuuuu86tvdZa7vDDq1tEIBdlNwwb5n766SfXq2cvt9tuu7oe3l0RAQIQgECtCSQtqsn+SBwp9O3Tu+RCq2SZej6OT6Vobg7l5hA3d1utpT6Eamu5UvQTAhCAAAQg0AQCJqzigrRv396hpr5LTBOpTai2rouI6XjvTz05bSILFERqOj2EajoXYiEAAQhAAAIQgAAEakwAoVrjC0DzEIAABCAAAQhAAALpBBCq6VyIhQAEIAABCEAAAhCoMQGEao0vAM1DAAIQgAAEIAABCKQTQKimcyEWAhCAAAQgAAEIQKDGBBCqNb4ANA8BCEAAAhCAAAQgkE4AoZrOhVgIQAACEIAABCAAgRoTQKjW+ALQPAQgAAEIQAACEIBAOgGEajoXYiEAAQhAAAIQgAAEakwAoVrjC0DzEIAABCAAAQhAAALpBBCq6VyIhQAEIAABCEAAAhCoMQGEao0vAM1DAAIQgAAEIAABCKQTQKimcyEWAhCAAAQgAAEIQKDGBBCqNb4ANA8BCEAAAhCAAAQgkE4AoZrOhVgIQAACEIAABCAAgRoTQKjW+ALQPAQgAAEIQAACEIBAOgGEajoXYiEAAQhAAAIQgAAEakwAoVrjC0DzEIAABCAAAQhAAALpBBCq6VyIhQAEIAABCEAAAhCoMQGEao0vAM1DAAIQgAAEIAABCKQTQKimcyEWAhCAAAQgAAEIQKDGBBCqNb4ANA8BCEAAAhCAAAQgkE4AoZrOhVgIQAACEIAABCAAgRoTQKjW+ALQPAQgAAEIQAACEIBAOgGEajoXYiEAAQhAAAIQgAAEakwAoVrjC0DzEIAABCAAAQhAAALpBBCq6VyIhQAEIAABCEAAAhCoMQGEao0vAM1DAAIQgAAEIAABCKQTQKimcyEWAhCAAAQgAAEIQKDGBBCqNb4ANA8BCEAAAhCAAAQgkE4AoZrOhVgIQAACEIAABCAAgRoTQKjW+ALQPAQgAAEIQAACEIBAOoG6Eqrvv/9+OgViIQABCEAAAhCAAAQaEOjatWuDuOkZgVCdnrRpCwIQgAAEIAABCLQiAgjVVnSx6CoEIAABCEAAAhCAwPQjUFcW1emHlZYgAAEIQAACEIAABLISQKhmJUh5CEAAAhCAAAQgAIFcCCBUc8FKpRCAAAQgAAEIQAACWQkgVLMSpDwEIAABCEAAAhCAQC4EEKq5YKVSCEAAAhCAAAQgAIGsBBCqWQlSHgIQgAAEIAABCEAgFwII1VywUikEIAABCEAAAhCAQFYCCNWsBCkPAQhAAAIQgAAEIJALAYRqLlipFAIQgAAEIAABCEAgKwGEalaClIcABCAAAQhAAAIQyIUAQjUXrFQKAQhAAAIQgAAEIJCVAEI1K0HKQwACEIAABCAAAQjkQgChmgtWKoUABCAAAQhAAAIQyEoAoZqVIOUhAAEIQAACEIAABHIhgFDNBSuVQgACEIAABCAAAQhkJYBQzUqQ8hCAAAQgAAEIQAACuRBAqOaClUohAAEIQAACEIAABLISQKhmJUh5CEAAAhCAAAQgAIFcCCBUc8FKpRCAAAQgAAEIQAACWQkgVLMSpDwEIAABCEAAAhCAQC4EEKq5YKVSCEAAAhCAAAQgAIGsBBCqWQlSHgIQgAAEIAABCEAgFwII1VywUikEIAABCEAAAhCAQFYCCNWsBCkPAQhAAAIQgAAEIJALAYRqLlipFAIQgAAEIAABCEAgKwGEalaClIcABCAAAQhAAAIQyIUAQjUXrFQKAQhAAAIQgAAEIJCVAEI1K0HKQwACEIAABCAAAQjkQgChmgtWKoUABCAAAQhAAAIQyEoAoZqVIOUhAAEIQAACEIAABHIhgFDNBSuVQgACEIAABCAAAQhkJYBQzUqQ8hCAAAQgAAEIQAACuRBAqOaClUohAAEIQAACEIAABLISQKhmJUh5CEAAAhCAAAQgAIFcCCBUc8FKpRCAAAQgAAEIQAACWQkgVLMSpDwEIAABCEAAAhCAQC4EEKq5YKVSCEAAAhCAAAQgAIGsBBCqWQlSHgIQgAAEIAABCEAgFwII1VywUikEIAABCEAAAhCAQFYCCNWsBCkPAQhAAAIQgAAEIJALAYRqLlipFAIQgAAEIAABCEAgKwGEalaClIcABCAAAQhAAAIQyIUAQjUXrFQKAQhAAAIQgAAEIJCVAEI1K0HKQwACEIAABCAAAQjkQgChmgtWKoUABCAAAQhAAAIQyEoAoZqVIOUhAAEIQAACEIAABHIhgFDNBSuVQgACEIAABCAAAQhkJYBQzUqQ8hCAAAQgAAEIQAACuRBAqOaClUohAAEIQAACEIAABLISQKhmJUh5CEAAAhCAAAQgAIFcCCBUc8FKpRCAAAQgAAEIQAACWQkgVLMSpDwEIAABCEAAAhCAQC4EEKq5YKVSCEAAAhCAAAQgAIGsBBCqWQlSHgIQgAAEIAABCEAgFwII1VywUikEIAABCEAAAhCAQFYCCNWsBCkPAQhAAAIQgAAEIJALAYRqLlipFAIQgAAEIAABCEAgKwGEalaClIcABCAAAQhAAAIQyIUAQjUXrFQKAQhAAAIQgAAEIJCVAEI1K0HKQwACEIAABCAAAQjkQgChmgtWKoUABCAAAQhAAAIQyEoAoZqVIOUhAAEIQAACEIAABHIhgFDNBSuVQgACEIAABCAAAQhkJYBQzUqQ8hCAAAQgAAEIQAACuRBAqOaClUohAAEIQAACEIAABLISQKhmJUh5CEAAAhCAAAQgAIFcCCBUc8FKpRCAAAQgAAEIQAACWQkgVLMSpDwEIAABCEAAAhCAQC4EEKq5YKVSCEAAAhCAAAQgAIGsBBCqWQlSHgIQgAAEIAABCEAgFwII1VywUikEIAABCEAAAhCAQFYCCNWsBCkPAQhAAAIQgAAEIJALAYRqLlipFAIQgAAEIAABCEAgKwGEalaClIcABCAAAQhAAAIQyIUAQjUXrFQKAQhAAAIQgAAEIJCVAEI1K0HKQwACEIAABCAAAQjkQgChmgtWKoUABCAAAQhAAAIQyEoAoZqVIOUhAAEIQAACEIAABHIhgFDNBSuVQgACEIAABCAAAQhkJYBQzUqQ8hCAAAQgAAEIQAACuRBAqOaClUohAAEIQAACEIAABLISQKhmJUh5CEAAAhCAAAQgAIFcCCBUc8FKpRCAAAQgAAEIQAACWQkgVLMSpDwEIAABCEAAAhCAQC4EEKq5YKVSCEAAAhCAAAQgAIGsBBCqWQlSHgIQgAAEIAABCEAgFwII1VywUikEIAABCEAAAhCAQFYCCNWsBCkPAQhAAAIQgAAEIJALAYRqLlipFAIQgAAEIAABCEAgKwGEalaClIcABCAAAQhAAAIQyIUAQjUXrFQKAQhAAAIQgAAEIJCVAEI1K0HKQwACEIAABCAAAQjkQgChmgtWKoUABCAAAQhAAAIQyEoAoZqVIOUhAAEIQAACEIAABHIhgFDNBSuVQgACEIAABCAAAQhkJYBQzUqQ8hCAAAQgAAEIQAACuRBAqOaClUohAAEIQAACEIAABLISQKhmJUh5CEAAAhCAAAQgAIFcCCBUc8FKpRCAAAQgAAEIQAACWQkgVLMSpDwEIAABCEAAAhCAQC4EEKq5YKVSCEAAAhCAAAQgAIGsBBCqWQlSHgIQgAAEIAABCEAgFwII1VywUikEIAABCEAAAhCAQFYCCNWsBCkPAQhAAAIQgAAEIJALAYRqLlipFAIQgAAEIAABCEAgKwGEalaClIcABCAAAQhAAAIQyIUAQjUXrFQKAQhAAAIQgAAEIJCVAEI1K0HKQwACEIAABCAAAQjkQgChmgtWKoUABCAAAQhAAAIQyEoAoZqVIOUhAAEIQAACEIAABHIhgFDNBSuVQgACEIAABCAAAQhkJYBQzUqQ8hCAAAQgAAEIQAACuRBAqOaClUohAAEIQAACEIAABLISQKhmJUh5CEAAAhCAAAQgAIFcCCBUc8FKpRCAAAQgAAEIQAACWQkgVLMSpDwEIAABCEAAAhCAQC4EEKq5YKVSCEAAAhCAAAQgAIGsBBCqWQlSHgIQgAAEIAABCEAgFwII1VywUikEIAABCEAAAhCAQFYCCNWsBCkPAQhAAAIQgAAEIJALAYRqLlipFAIQgAAEIAABCEAgKwGEalaClIcABCAAAQhAAAIQyIUAQjUXrFQKAQhAAAIQgAAEIJCVAEI1K0HKQwACEIAABCAAAQjkQgChmgtWKoUABCAAAQhAAAIQyEoAoZqVIOUhAAEIQAACEIAABHIhgFDNBSuVQgACEIAABCAAAQhkJYBQzUqQ8hCAAAQgAAEIQAACuRBAqOaClUohAAEIQAACEIAABLISQKhmJUh5CEAAAhCAAAQgAIFcCCBUc8FKpRCAAAQgAAEIQAACWQkgVLMSpDwEIAABCEAAAhCAQC4EEKq5YKVSCEAAAhCAAAQgAIGsBBCqWQlSHgIQgAAEIAABCEAgFwII1VywUikEIAABCEAAAhCAQFYCCNWsBCkPAQhAAAIQgAAEIJALAYRqLlipFAIQgAAEIAABCEAgKwGEalaClIcABCAAAQhAAAIQyIUAQjUXrFQKAQhAAAIQgAAEIJCVAEI1K0HKQwACEIAABCAAAQjkQgChmgtWKoUABCAAAQhAAAIQyEoAoZqVIOUhAAEIQAACEIAABHIhgFDNBSuVQgACEIAABCAAAQhkJYBQzUqQ8hCAAAQgAAEIQAACuRBAqOaClUohAAEIQAACEIAABLISQKhmJUh5CEAAAhCAAAQgAIFcCCBUc8FKpRCAAAQgAAEIQAACWQkgVLMSpDwEIAABCEAAAhCAQC4EEKq5YKVSCEAAAhCAAAQgAIGsBBCqWQlSHgIQgAAEIAABCEAgFwII1VywUikEIAABCEAAAhCAQFYC002o/uc//3HLL7981v5SHgIQgAAEIAABCECgTgiMHj3azTLLLG7mmWcubGeaaaZwPOOMM7r4Z4YZZnDh8+2330bi87///c9FURS22tfn119/LXz++9//OglU2yJU6+Su4jQhAAEIQAACEIBAMxBorFCVcJ2hnFCVWJUwlWA1gWpbhGozXDGqgAAEIAABCEAAAnVCAKFaJxea04QABCAAAQhAAAKtjYCEart27ZyG+20KQLmhfyyqre0K018IQAACEIAABCDQSgkgVFvphaPbEIAABCAAAQhAoK0TmC5CVfNVp06dyqr/tn43cX4QgAAEIAABCECgGQnkLlS1kEofhGozXjWqggAEIAABCEAAAnVAwISq3FPZp1FzVMVIFlNzVWWr/W2LUK2Du4hThAAEIAABCEAAAjkQKCdUJVjlN1ULqLSv0GAxlSIRqqJAgAAEIAABCEAAAhBoTgII1eakSV0QgAAEIAABCEAAAs1GIFehKkurvZmKOarNds2oCAIQgAAEIAABCNQFgbhQlR9VDfHbHNXMQ/8I1bq4hzhJCEAAAhCAAAQgkAuB3ISqvUoVi2ou141KIQABCEAAAhCAQJsnkBSqWvmvBVPaNsqiGkVRWPlvq/0Rqm3+3uEEIQABCEAAAhCAQK4EKgnVsMrfr/yXaFUIx999953XpdOEqSIlTu24lFCVZXW55ZZTdgIEIAABCEAAAhCAAAQqEhgzZozT3FRZUG0bt6g2SahKrJpglUDVvhZTIVQrXg8yQAACEIAABCAAAQj8RkBCtV27dsFiakJV1lP7lBWqsqLqIyEat6giVLm/IAABCEAAAhCAAASyEmiMUJXz//CxoX8TqpqPGv/obVRmUY2/mQqLatbLRXkIQAACEIAABCBQPwRMqNrrU20RlbaypsY/jRaqEqvxVf8I1fq5sThTCEAAAhCAAAQgkJVAXKgm/ajGRapNAWiURTUuVCVY+/fvn7W/lIcABCAAAQhAAAIQqBMCL7/8cmERVWahavNVNdyfdE+FUK2TO4rThAAEIAABCEAAAs1EIClUbejfFlPJgmqW1aKhf7UvMWqLqGzfFlLZHNX4qn8sqs101agGAhCAAAQgAAEI1AEBCdVyq/6TQjVMAdBiKrGROFWQKDXBmhSq8cVUCNWAi/8gAAEIQAACEIAABKogYEI1uZjKLKo2N1XHCgjVKqCSBQIQgAAEIAABCEAgO4G4UI3PUW2yUJWV1Yb9tbVV/9r269cvTIjN3m1qgAAEIAABCEAAAhBoywSkHceNG1c09C+BavNU43NTUy2qpfyo2vC/hv3jc1S7devm5plnnrbMlHODAAQgAAEIQAACEGgGAn6qqXv33XeLhKqJVLOoJueohgVVNkc1KVR1bCLVrKrxOaoLLbSQ69SpUzN0nSogAAEIQAACEIAABNoygUmTJrkvvvgiCFUb9q9KqH7//fdek057faptJUxNqGr4XwLVROvUqVPDsdSvhv8JEIAABCAAAQhAAAIQKEdAw/7SlNKPtvLfhKqG/RUvC6ptgzVVr1E1oarKJU5VSfxjAtWsqvF5qosttphbYIEFyvWLNAhAAAIQgAAEIACBOibw1VdfuQ8++KDI2b+JVAlTfWyOqm0lVBWqEqpxq6qEqolVVbz00kvXMXpOHQIQgAAEIAABCECgJAHvBPXV114NI/MSp7KmamtC1aypJlBtWyRUVbkN+5eyqtr8VNuaYJ1//vld9+7dS/aPBAhAAAIQgAAEIACB+iTwzjvvuK+//jpYUzU31USqbUtZU4uG/oUuKVRNsCaH/nVsFlWbr9qhQwfXtWvX+rwCnDUEIAABCEAAAhCAQAMC77//vvv000+DOJUlNS5UbcjftrKkSpzatiBUf/jhB69Jw8upwtxUE6wa7td+XKjaPFVZVU2s2nbBBRd0PXv2DI006CkREIAABCAAAQhAAAJ1QUD68a233nJffvllEKkmUG1rw/4mUrVNilQJVoUZkkJVkSZQbWtzVG1rXgBkUZV4ta06oAVWsrASIAABCEAAAhCAAATqi4AsqFo4JUOmBKmJU20lSG1rIlWC1ISqbUWsIFR//PHHSAJUQcLUPopLftRoKbFqllWJ2FlnndXJz2r79u3d3HPPHSbOSikTIAABCEAAAhCAAATaBgFpRhkrvQcpN3ny5OAndcqUKQUxaqI07o7KrKnaSowmP4Uhf1v1HxeqwiYhqoZNpNq+LKeKiw//m2U1PhXA0k3QxuszEWxbtRff1zEBAhCAAAQgAAEIQKBlEDDhqN7Yvm0lMrWvrQnPuBA1a6ospYq3j45VxrZWR7w+O/sZJFTjYlH7EpcK2sY/EqHxj1lYzZoaF6mWL17e2tFWwY7DQeI/y5OI5hACEIAABCAAAQhAIAcCEoxpwYSp0mw/Li5NdJrwTIpVpZt1VXnso/j4R/Xr2PoR2pJQVYKJRhOIJjB1bPsSn9o3EWrC1CyrFq/jZBmrX/HWXnwbIn/7z/oQj2vsfnPU0dg2yQ8BCEAAAhCAAARqRcAEXpb20+qwONuamNSx9k2gat9EqonRuBXV4pJlrB7FK+i48CknVE1caisRqm1chCYFqglVbU3Qamvl1Xi8Tu0nQ1pcMk/yuCllknVwDAEIQAACEIAABNoaAQm+xoa0MgXhGBOREpaKjwtPE6PJrQSr8umjfZVTnni9Vp/6W4iPC1UlJIWkCU1tkx8JUhOuJlItj8WrPouz+nVs+2HH/9cYsdmYvFY/WwhAAAIQgAAEIFDvBCQAqw3xvLYfF5MmPJVmAtTiTKhavI4tLb61strGP+pjODahqggTgHEhGReZtm8WUzvW1oSp9pPpJlaT9atNBcVb2rSY4v/LpRXn5AgCEIAABCAAAQhAoFoCEoOlggnHeLpEppWx/bjwjAvSuBXV8sTTVa/Fx+tUvB2HxVSKUDBBaMLRjiU843EmRBVn+0mBqjQTsravrbWjfTsOkb/9F4+L78fzsA8BCEAAAhCAAAQg0HwETBiqxvi+taA4+1iepFBVugnPuCDVvqXZvtWlY6vP4uw4bH/66SevB3+fK2r7EpkKOtZHx7avrQnU5H5SnCbLKb/VG9+GSP+fpdsxWwhAAAIQgAAEIACB6UdAgjEe7Di+NVGprYnTtH0Tpspj+1bWhK6OFXSsYMdhX0JVOyYQbas4E5mWLnFq+8qnY20tnx1bnMVbnTqOlw8Hv/1neSw9nsY+BCAAAQhAAAIQgED+BIpEYopgtfS4qFScjuPC00SpxdmxlU8eW306Q8uj7QwmVJUgsZgUjPE47ZsYtfwSn3FBmsxj4tS2yfqsHm0rBZUlQAACEIAABCAAAQhkI2BisFItli++tX0Tl7ZVfFyA6lhp+liZeB61rWP72HHRNilUlRgXhCYsLU5bE6eWV3Fxa6uJ0uQ2XoeV1TYtWN60NOIgAAEIQAACEIAABJqXgInJtFotLbk1kRrfWp64aFWdaaJVeS2/8th+Yfvzzz97Tfi7pdL2batCtm/CU8f66Nj2LV9csFqc5dWxgo7jwY5tG09jHwIQgAAEIAABCEBg+hIoCEUvJOPB4hVnllKLs60JVOVRnD7JvCZsrYzljW/DvoSqduIi0fZtG09PilWlxcWpldFWH8sfr8PyxOO0XynEy1XKSzoEIAABCEAAAhCAQDqBuEBMz/F7bDyv7dtWuZIiVGmWLtGqEI+rWqSqHhOqqiQpBOMiM55u8ZbftnHBGs+vdMtjW6Ung+otl57MzzEEIAABCEAAAhCAQPMSkKg0MZlWs4nQuPiMx6lMXKDq2PIm8ylNIdme5ft/Ta8vUbsNPL4AAAAASUVORK5CYII=;" vertex="1" parent="1">
          <mxGeometry x="59.4" y="55.5" width="361.2" height="384.5" as="geometry" />
        </mxCell>
      </root>
    </mxGraphModel>
  </diagram>
</mxfile>
